<?xml version="1.0" encoding="utf-8"?>
<!-- Generator: Adobe Illustrator 20.1.0, SVG Export Plug-In . SVG Version: 6.00 Build 0)  -->
<svg version="1.1" id="Layer_1" xmlns="http://www.w3.org/2000/svg" xmlns:xlink="http://www.w3.org/1999/xlink" x="0px" y="0px"
	 viewBox="0 0 1224 792" style="enable-background:new 0 0 1224 792;" xml:space="preserve">
<style type="text/css">
	.st0{fill:none;stroke:#FFFFFF;stroke-miterlimit:10;}
	.st1{fill:#D1D3D4;}
	.st2{fill:#A7A9AC;}
	.st3{fill:none;stroke:#939598;stroke-miterlimit:10;}
	.st4{fill:#AABC8A;}
	.st5{fill:#E6E7E8;}
	.st6{fill:#8DC63F;}
	.st7{fill:#FFFFFD;stroke:#939598;stroke-width:0.5;stroke-miterlimit:10;}
	.st8{fill:#DF0887;}
	.st9{font-family:'LLCooper';}
	.st10{font-size:10.8829px;}
	.st11{fill:#DF4489;}
	.st12{opacity:0.91;}
	.st13{opacity:0.52;fill:#DF0887;}
	.st14{fill:none;}
	.st15{fill:#414042;}
	.st16{font-family:'Georgia-Italic';}
	.st17{font-size:12.8959px;}
	.st18{font-family:'Georgia-BoldItalic';}
	.st19{font-size:11.7236px;}
	.st20{font-size:11.7237px;}
	.st21{opacity:0.62;}
	.st22{fill:#FFFFFF;stroke:#A7A9AC;stroke-width:0.5;stroke-miterlimit:10;}
	.st23{opacity:0.44;}
	.st24{fill:#EC008C;}
	.st25{fill:#FFFFFF;}
	.st26{fill:none;stroke:#A7A9AC;stroke-miterlimit:10;}
	.st27{opacity:0.44;fill:#EC008C;}
	.st28{fill:#FFFFFF;stroke:#808285;stroke-width:0.5;stroke-miterlimit:10;}
	.st29{opacity:0.77;fill:#EC008C;}
	.st30{fill:#21130F;}
	.st31{fill:#F1F2F2;stroke:#8DC63F;stroke-width:0.5;stroke-miterlimit:10;}
	.st32{font-size:9.5693px;}
	.st33{fill:#F2E8F3;stroke:#EC008C;stroke-width:0.5;stroke-miterlimit:10;}
	.st34{fill:#58595B;}
	.st35{fill:none;stroke:#92443B;stroke-miterlimit:10;}
	.st36{fill:#EFD6E8;}
	.st37{font-size:9.5692px;}
	.st38{fill:#F1F2F2;stroke:#808285;stroke-width:0.5;stroke-miterlimit:10;}
	.st39{fill:#4A4A57;}
	.st40{fill:none;stroke:#D1D3D4;stroke-width:0.5;stroke-miterlimit:10;}
	.st41{font-size:15.0014px;}
	.st42{fill:#E90E8B;}
	.st43{font-size:22.5021px;}
	.st44{font-size:22.502px;}
	.st45{fill:#E6E7E8;stroke:#E6E7E8;stroke-miterlimit:10;}
	.st46{fill:#E6E7E8;stroke:#D1D3D4;stroke-miterlimit:10;}
	.st47{fill:#F1F2F2;stroke:#A7A9AC;stroke-width:0.5;stroke-miterlimit:10;}
	.st48{font-family:'AndaleMono';}
	.st49{font-size:16.413px;}
	.st50{letter-spacing:4.4;}
	.st51{fill:#D1D3D4;stroke:#D1D3D4;stroke-miterlimit:10;}
	.st52{letter-spacing:-1;}
	.st53{letter-spacing:1;}
	.st54{letter-spacing:3.3;}
	.st55{font-size:9.3789px;}
	.st56{fill:none;stroke:#A7A9AC;stroke-width:0.25;stroke-miterlimit:10;}
</style>
<rect id="XMLID_78_" x="18.6" y="15" class="st0" width="1194" height="762"/>
<g id="XMLID_41_">
	<rect id="XMLID_394_" x="608.7" y="634.8" class="st1" width="308.5" height="46.3"/>
	<g id="XMLID_443_">
		<path id="XMLID_393_" class="st2" d="M564.1,220.2c3.4-1.6,3.3-3.5,3.3-9.3s-1.6-44.6-1.6-44.6c-2.7-3.3-16.1-2.7-17.7,0
			c0,0,2.2,45.7,2.2,49.8C550.2,220.2,558.1,223,564.1,220.2z"/>
		<path id="XMLID_392_" class="st3" d="M556.5,214.1"/>
		<path id="XMLID_391_" class="st3" d="M567.1,169.9"/>
		<g id="XMLID_9_">
			<g id="XMLID_419_">
				<path class="st4" d="M554.9,214.2l-0.5-23.9l2.2,23.8l7.6,6.1c0,0-0.9,0.8-1.8,0.7l-6.6-5.9L554.9,214.2z"/>
			</g>
			<g id="XMLID_420_">
			</g>
		</g>
		<ellipse id="XMLID_390_" class="st5" cx="558.8" cy="216.9" rx="8.3" ry="4.8"/>
		<g id="XMLID_535_">
			<g id="XMLID_8_">
				<g id="XMLID_413_">
					<path class="st2" d="M552.8,305.1c-0.7-0.8-0.1-25.8,0.2-30.7c0.3-4.9-0.5-11.2,0-12.5c0.5-1.4,3.8-25.8,3.8-25.8
						c-0.4,3.2,4.9,38.8,12.1,31.5c0.1,5,0.2,11.8-0.2,13.9c-0.6,3.3,5.5,6.5,6.9,9.1c1.8,3.3-6,0.3-6.6,0.4c0.1,0.7,0.5,1.3,0.8,2
						c0.8,1.9,0.1,5.2,0.3,7.3c0.2,2.1,0.1,4.2-0.2,6.3C557.6,296.1,554,302.4,552.8,305.1z"/>
					<path class="st6" d="M568.9,267.6c-7.2,7.3-12.5-28.3-12.1-31.5C556.8,236,564.1,270.2,568.9,267.6z"/>
					<path class="st5" d="M552.8,305.1c1.3-2.7,4.8-9,17.1,1.4C571.2,314.4,553.5,305.9,552.8,305.1z"/>
					<path class="st5" d="M556.8,236c0,0,7.9,1.1,7.9,1.4c0,0.3,3.8,23.1,4,24.8c0.1,0.6,0.2,2.7,0.2,5.4
						C564.1,270.2,556.8,236,556.8,236z"/>
				</g>
				<g id="XMLID_414_">
				</g>
			</g>
		</g>
		<path id="XMLID_389_" class="st2" d="M561.9,221.3l-7-8.7c0,0,0.6-0.6,1.5-0.4c0.9,0.3,7.8,7.9,7.8,7.9S562.4,221.4,561.9,221.3z"
			/>
		<g id="XMLID_513_">
			<g id="XMLID_518_">
				<g id="XMLID_4_">
					<g id="XMLID_98_">
						<path class="st2" d="M475.5,252.9c-0.7-0.8-0.1-25.8,0.2-30.7c0.3-4.9-0.5-11.2,0-12.5c0.5-1.4,1.6-25.8,1.6-25.8
							s0.9,0.1,2.2,0.2c-0.3,4.4,2.5,37,12.1,31c0.2,5,0.2,12-0.2,14.1c-0.6,3.3,5.5,6.5,6.9,9.1c1.8,3.3-6,0.3-6.6,0.4
							c0.1,0.7,0.5,1.3,0.8,2c0.8,1.9,0.1,5.2,0.3,7.3c0.2,2.1,0.1,4.2-0.2,6.3C480.3,243.9,476.8,250.2,475.5,252.9z"/>
						<path class="st4" d="M491.6,215.1c-9.6,6-12.4-26.7-12.1-31c0,0,0.1,0,0.1,0c0.9,2.8,9.2,27.9,12,30.5
							C491.6,214.7,491.6,214.9,491.6,215.1z"/>
						<path class="st4" d="M479.5,184c0-0.1,0-0.2,0-0.2c0,0,0,0.1,0.1,0.3C479.5,184,479.5,184,479.5,184z"/>
						<path class="st5" d="M475.5,252.9c1.3-2.7,4.8-9,17.1,1.4C493.9,262.1,476.2,253.7,475.5,252.9z"/>
						<path class="st5" d="M479.6,184c3,0.3,7.8,0.9,7.8,1.1c0,0.3,3.8,23.1,4,24.8c0.1,0.5,0.1,2.3,0.2,4.7
							C488.8,212,480.5,186.8,479.6,184z"/>
						<path class="st4" d="M491.6,215.1c0-0.2,0-0.3,0-0.5c0.2,0.2,0.3,0.2,0.4,0.2C491.9,214.9,491.7,215,491.6,215.1z"/>
					</g>
					<g id="XMLID_99_">
					</g>
				</g>
			</g>
			<path id="XMLID_388_" class="st2" d="M493.1,218.1l-8-6l-4.7-24.8l-4.2,26.7v3v2.7c-8.6,0.8-4.7-11.2-4.4-15
				c0.3-3.8,2.9-23.7,2.3-28.6s-2.3-9.8,0-9.8s14.1-1.1,16.4,0c2.3,1.1,1.8,3.8,1.8,5.4s-2.1,20.7-0.8,25S497,215.1,493.1,218.1z"/>
			<path id="XMLID_387_" class="st4" d="M475.6,219.1c-0.1-1.4,4.7-29.7,4.8-31.7c0,0-5.8,31.1-5.8,31.7
				C474.6,219.7,475.6,219.1,475.6,219.1z"/>
			<path id="XMLID_386_" class="st5" d="M493.1,218.1c1.5-3.2,4-9.7-8-6L493.1,218.1z"/>
			<path id="XMLID_385_" class="st5" d="M476.3,219.7c-3.5,1-6.1-2.2-5.4-4.2c0.7-2,3.8-2.5,5.9-2.5L476.3,219.7z"/>
		</g>
		<g id="XMLID_490_">
			<g id="XMLID_498_">
				<g id="XMLID_5_">
					<g id="XMLID_56_">
						<path class="st2" d="M401.2,305.1c-0.7-0.8-0.1-25.8,0.2-30.7c0.3-4.9-0.5-11.2,0-12.5c0.5-1.4,1.6-25.8,1.6-25.8
							s0.9,0.1,2.2,0.2c-0.3,4.4,2.5,37,12.1,31c0.2,5,0.2,12-0.2,14.1c-0.6,3.3,5.5,6.5,6.9,9.1c1.8,3.3-6,0.3-6.6,0.4
							c0.1,0.7,0.5,1.3,0.8,2c0.8,1.9,0.1,5.2,0.3,7.3c0.2,2.1,0.1,4.2-0.2,6.3C406,296.1,402.5,302.4,401.2,305.1z"/>
						<path class="st4" d="M417.3,267.3c-9.6,6-12.4-26.7-12.1-31c0,0,0.1,0,0.1,0c0.9,2.8,9.2,27.9,12,30.5
							C417.3,267,417.3,267.1,417.3,267.3z"/>
						<path class="st4" d="M405.2,236.3c0-0.1,0-0.2,0-0.2c0,0,0,0.1,0.1,0.3C405.3,236.3,405.2,236.3,405.2,236.3z"/>
						<path class="st5" d="M401.2,305.1c1.3-2.7,4.8-9,17.1,1.4C419.6,314.4,402,305.9,401.2,305.1z"/>
						<path class="st5" d="M405.3,236.3c3,0.3,7.8,0.9,7.8,1.1c0,0.3,3.8,23.1,4,24.8c0.1,0.5,0.1,2.3,0.2,4.7
							C414.5,264.2,406.2,239,405.3,236.3z"/>
						<path class="st4" d="M417.3,267.3c0-0.2,0-0.3,0-0.5c0.2,0.2,0.3,0.2,0.4,0.2C417.6,267.1,417.5,267.2,417.3,267.3z"/>
					</g>
					<g id="XMLID_59_">
					</g>
				</g>
			</g>
			<path id="XMLID_384_" class="st2" d="M418.8,270.3l-8-6l-4.7-24.8l-4.2,26.7v3v2.7c-8.6,0.8-4.7-11.2-4.4-15s2.9-23.7,2.3-28.6
				s-2.3-9.8,0-9.8s14.1-1.1,16.4,0c2.3,1.1,1.8,3.8,1.8,5.4s-2.1,20.7-0.8,25C418.6,253.4,422.7,267.3,418.8,270.3z"/>
			<path id="XMLID_383_" class="st4" d="M401.4,271.3c-0.1-1.4,4.7-29.7,4.8-31.7c0,0-5.8,31.1-5.8,31.7
				C400.3,272,401.4,271.3,401.4,271.3z"/>
			<path id="XMLID_382_" class="st5" d="M418.8,270.3c1.5-3.2,4-9.7-8-6L418.8,270.3z"/>
			<path id="XMLID_381_" class="st5" d="M402,271.9c-3.5,1-6.1-2.2-5.4-4.2c0.7-2,3.8-2.5,5.9-2.5L402,271.9z"/>
			<path id="XMLID_380_" class="st7" d="M397.8,242.8c0,0-1.6-4.7,0-5.3c1.6-0.5,8.9,0.9,11.6,1.8
				C406.9,238.7,398.9,242.1,397.8,242.8z"/>
			<path id="XMLID_379_" class="st7" d="M399.4,246.9c-1.9,0.6-3.1-1.6-2.4-2.8s11.4-7,16.7-4c5.3,3.1,12.7,11.1,12.5,15.8
				c0,0-4-0.3-4.5,0C421.2,256.2,415.4,241.6,399.4,246.9z"/>
			<path id="XMLID_378_" class="st8" d="M436.3,260.7c-1.1,6.1-9.6,6.1-8.3-1.5c-1.5,7.5-9.4,4.7-8.3-1.4c0.4-2.3,2.6-2.4,4.5-2.8
				c1.1-0.2,1.9-0.8,2.7-1.5c0.5-0.5,0.9-1.1,1.5-1.4c0.2-0.1,0.4-0.1,0.5,0.1c1.2,1.7,1.5,3.3,3.6,4.4
				C434.2,257.5,436.7,258.3,436.3,260.7z"/>
		</g>
		<g id="XMLID_451_">
			<g id="XMLID_468_">
				<g id="XMLID_475_">
					<g id="XMLID_6_">
						<g id="XMLID_45_">
							<path class="st2" d="M342.7,252.9c-0.7-0.8-0.1-25.8,0.2-30.7c0.3-4.9-0.5-11.2,0-12.5c0.5-1.4,1.6-25.8,1.6-25.8
								s0.9,0.1,2.2,0.2c-0.3,4.4,2.5,37,12.1,31c0.2,5,0.2,12-0.2,14.1c-0.6,3.3,5.5,6.5,6.9,9.1c1.8,3.3-6,0.3-6.6,0.4
								c0.1,0.7,0.5,1.3,0.8,2c0.8,1.9,0.1,5.2,0.3,7.3c0.2,2.1,0.1,4.2-0.2,6.3C347.5,243.9,344,250.2,342.7,252.9z"/>
							<path class="st4" d="M358.8,215.1c-9.6,6-12.4-26.7-12.1-31c0,0,0.1,0,0.1,0c0.9,2.8,9.2,27.9,12,30.5
								C358.8,214.7,358.8,214.9,358.8,215.1z"/>
							<path class="st4" d="M346.7,184c0-0.1,0-0.2,0-0.2c0,0,0,0.1,0.1,0.3C346.8,184,346.7,184,346.7,184z"/>
							<path class="st5" d="M342.7,252.9c1.3-2.7,4.8-9,17.1,1.4C361.1,262.1,343.5,253.7,342.7,252.9z"/>
							<path class="st5" d="M346.8,184c3,0.3,7.8,0.9,7.8,1.1c0,0.3,3.8,23.1,4,24.8c0.1,0.5,0.1,2.3,0.2,4.7
								C356,212,347.7,186.8,346.8,184z"/>
							<path class="st4" d="M358.8,215.1c0-0.2,0-0.3,0-0.5c0.2,0.2,0.3,0.2,0.4,0.2C359.1,214.9,359,215,358.8,215.1z"/>
						</g>
						<g id="XMLID_48_">
						</g>
					</g>
				</g>
				<path id="XMLID_377_" class="st2" d="M360.3,218.1l-8-6l-4.7-24.8l-4.2,26.7v3v2.7c-8.6,0.8-4.7-11.2-4.4-15
					c0.3-3.8,2.9-23.7,2.3-28.6s-2.3-9.8,0-9.8c2.3,0,14.1-1.1,16.4,0s1.8,3.8,1.8,5.4s-2.1,20.7-0.8,25S364.2,215.1,360.3,218.1z"
					/>
				<path id="XMLID_376_" class="st4" d="M342.9,219.1c-0.1-1.4,4.7-29.7,4.8-31.7c0,0-5.8,31.1-5.8,31.7
					C341.8,219.7,342.9,219.1,342.9,219.1z"/>
				<path id="XMLID_375_" class="st5" d="M360.3,218.1c1.5-3.2,4-9.7-8-6L360.3,218.1z"/>
				<path id="XMLID_374_" class="st5" d="M343.5,219.7c-3.5,1-6.1-2.2-5.4-4.2c0.7-2,3.8-2.5,5.9-2.5L343.5,219.7z"/>
			</g>
			<g id="XMLID_454_">
				<path id="XMLID_373_" class="st7" d="M341.3,180.4c-1.1,0-1.3-2.9,0-3.4s17.2-0.2,18.7,1.7C360,178.7,342.6,180.4,341.3,180.4z"
					/>
				<path id="XMLID_372_" class="st7" d="M360,183.1c1.3,1.3,1.7-3.6,0-4.4c-1.7-0.8-8.3,0.8-9.8,0.9
					C350.2,179.6,358.7,181.9,360,183.1z"/>
				<path id="XMLID_371_" class="st7" d="M341.3,180.4c-1.9,1.3,18,6.5,18.7,7.8c0,0,1.4-4.3,0-5.1S347.3,176.4,341.3,180.4z"/>
				<path id="XMLID_370_" class="st7" d="M341.3,180.4c-0.4,2.4-0.8,6.3-0.1,6.3c0.7,0,7.8-2.7,9.7-2
					C352.8,185.4,341.3,180.4,341.3,180.4z"/>
				<path id="XMLID_369_" class="st7" d="M341.2,190.4c-2,0.1-1.5-3.2,0-3.6c1.5-0.4,9.5-2.1,11-1.6s9.8,1.8,8.4,6.3
					C359.2,196,355.5,189.5,341.2,190.4z"/>
				<path id="XMLID_368_" class="st7" d="M341.2,195c-1.2,0.4-1.4-4.5,0-4.6c1.4-0.1,20-0.1,19.4,1.1s0.5,6.3-0.6,6.3
					S343,194.3,341.2,195z"/>
				<path id="XMLID_367_" class="st7" d="M340.2,200.9c-0.9-1.6-0.4-5.9,1-5.9s17.7,1.4,18.8,2.9s1.5,3.6,1.1,4.1
					C360.7,202.5,340.2,200.9,340.2,200.9z"/>
				<path id="XMLID_366_" class="st7" d="M339.7,205.5c-0.4,1.6-0.9-4.7,0.4-4.6s20.1,0.7,20.9,1.1
					C362,202.4,340.2,203.8,339.7,205.5z"/>
				<path id="XMLID_365_" class="st7" d="M338,212.3c-1.5,1.3,0.8-6.2,1.7-6.8c0.9-0.6,20.5-5,21.4-3.5c0.9,1.5,1.4,6,0.1,6
					C360,208,342.2,208.7,338,212.3z"/>
				<path id="XMLID_364_" class="st7" d="M362,213.1c0.7-2.6,0.4-5.2-0.8-5.1c-1.1,0-21.2,1.8-23.2,4.4
					C344,210.6,362,213.1,362,213.1z"/>
				<path id="XMLID_363_" class="st7" d="M362,218.6c0.4,1.1,2.1-5.4,1-5.4s-23.4-3.7-25-0.8c-1.6,2.9,0.3,2.6,1.8,2.7
					C341.3,215.2,361.7,217.7,362,218.6z"/>
				<path id="XMLID_362_" class="st7" d="M339.3,220.2c-2.3-0.7-2.6-5-1.9-5.2c0.7-0.2,24.5,1.9,24.6,3.5c0.1,1.6,0.6,6.5-1.3,6.5
					C358.9,225,341.3,220.9,339.3,220.2z"/>
				<path id="XMLID_361_" class="st7" d="M343.6,226.9c-1.1-0.1-3-5.6-4.3-6.6c1.9-1.4,20.8,3.4,21.4,4.8c0.7,1.5,3.2,5.8-0.8,5.1
					S345.6,227,343.6,226.9z"/>
			</g>
		</g>
		<text id="XMLID_360_" transform="matrix(-1 0 0 -1 575.8044 313.7344)" class="st2 st9 st10">1.</text>
		<text id="XMLID_359_" transform="matrix(-1 0 0 -1 498.5349 263.3115)" class="st2 st9 st10">2.</text>
		<text id="XMLID_358_" transform="matrix(-1 0 0 -1 433.2351 314.3755)" class="st2 st9 st10">3.</text>
		<text id="XMLID_357_" transform="matrix(-1 0 0 -1 365.7634 263.3115)" class="st2 st9 st10">4.</text>
		<g id="XMLID_444_">
			<polygon id="XMLID_356_" class="st11" points="537.9,268 538,210.9 541.5,210.9 537.2,201.7 532.8,210.9 536.3,210.9 536.3,268 
							"/>
		</g>
	</g>
	<g id="XMLID_416_" class="st12">
		<g id="XMLID_421_">
			<path id="XMLID_355_" class="st5" d="M702.2,582.4c0,0-27.8,19-37.8,30.7c-3.4,4-6.8,8.4-11.4,10.8c-4.7,2.4-11.2,2.3-14.5-1.8
				c0,0.2,0,0.3,0.1,0.5c0.6,4.8,1.2,9.7,1.9,14.5c0.6,4.8,0.8,10,1.9,14.7c3.5-10,10.8-17.3,18.3-24.4c5.7-5.4,11.5-10.8,17.2-16.2
				c4.1-3.9,8.4-7.8,13.8-9.5c5.4-1.6,12.2,0,14.7,5c1.4,2.8,1.3,6,2,9c2,8.7,10.4,14.2,18,18.7c4.5-9.4,8.9-21.2,2.5-29.4
				c-3.9-5-10.6-6.8-16.9-7.4c-7.9-0.7-15.8,0-23.4,2.1c4.6-4.3,7.8-7.5,12.9-11.2C701.5,588.8,702.2,582.4,702.2,582.4z"/>
			<path id="XMLID_354_" class="st5" d="M884.8,476.2c-3-0.9-6-1.7-9-2.6c-0.2-1.8,0.7-3.7,2.1-4.8c-1.2-0.2-2.5-0.4-3.7-0.5
				c-0.2-1.7-1-3.3-2.2-4.5c-2.1,1.3-5.1,1-6.9-0.8c-6,2.8-7.3,10.5-9.2,16.8s-7.5,13.3-13.7,11.1c0.1-5.1,4.9-8.6,7.8-12.7
				c5.5-7.8,3.8-19.9-3.7-25.8c-4.1,8.6-8.3,18.2-5.8,27.4c0.6,2.2,0.6,4.2,0.5,6.4c-0.1,3.8-2.2,6.9-5.1,9.4
				c-15.7,13.6-33.8,24.5-53.2,32.1c0.6-3,3.6-4.6,6.2-6.2c9.3-5.5,16.5-14.3,20.1-24.5c-9-1.1-20.2-1.1-24.5,6.8
				c-1,1.8-1.5,4-1.4,6.1c0.1,2.5,1.1,4.9,1.2,7.4c0.2,2.5-0.7,5.4-3,6.4c0.7-6.9-5.9-12.7-6-19.7c0-2.7,0.9-5.3,1-8
				c0.2-6.8-6.1-13-12.9-12.7c-3.4,0.2-7,1.7-10.2,0.5c-2.1-0.8-3.6-2.5-5.5-3.7c-1.9-1.2-4.6-1.7-6.1,0c6.9,4.2,14.5,9.3,15.9,17.3
				c-2.6-1.5-6.2-1.2-8.6,0.6c1.6,5,3.2,10.1,6.4,14.3c3.2,4.2,8.3,7.3,13.5,6.6c1.5-0.2,2.9-0.6,4.4-0.4c3.5,0.5,5.2,4.9,4.3,8.3
				c-0.9,3.4-3.7,5.9-6.4,8.3c-15.1,13.1-31.7,24.5-49.3,33.9c-2.2-3.2-0.5-7.7,2-10.7c2.6-3,6-5.2,7.9-8.6c2.7-4.8,1.9-10.9-0.4-16
				s-5.9-9.3-8.9-14c-2.6-4.1-6.7-9.1-11.1-7.2c1.7,2.8,3.5,5.7,5.2,8.5c1.2,1.9,2.4,3.9,2.7,6.1c0.6,4.3-2.1,8.3-2.7,12.6
				c-1,7,3.7,13.7,3.4,20.8c-0.4,9.5-5,15-13,19.9l-0.7,6.7c6.5-4.1,18.1-12.5,25.2-15.6c3.7-1.6,9.4-2.1,10.3,1.8
				c0.8,3.8-4.1,5.8-7.2,8.2c-3.5,2.8-4.9,7.8-4.2,12.3c0.6,4.5,3,8.5,5.8,12.1c8.8-8.7,12-22.7,7.6-34.4c5,5.7,7.6,13.4,7.1,20.9
				c-0.2,2.5-0.7,5.2,0.3,7.5c1.3,3,5.2,4.7,8.3,3.4c3.1-1.3,4.7-5.2,3.4-8.2c-1.2-3-4.5-4.6-6.9-6.8c-2.4-2.2-3.8-6.6-1.1-8.5
				c4.5,8.8,12.6,15.6,22,18.4c5.3-12.6-2.6-29-15.7-32.7c10.7-4.1,21.6,9.8,32.7,7c-0.9-6.5-6.6-11.9-13.1-12.6
				c-3-0.3-6.1,0.3-8.9-0.7c-3.1-1.1-5.8-4.1-9-3.3c-3.1,0.7-4.3,4.5-6.2,7c-3.4,4.4-10.7,5.2-14.9,1.5c0.8-1.9,2.5-3.3,4.1-4.6
				c13.9-11.3,28.9-21.4,44.6-30.1c7.1-3.9,14.5-7.6,22.6-8.6c8-0.9,16.9,1.3,22,7.6c1.7,2.1,3,4.7,5.4,5.9c2.2,1.1,5.2,1.1,6.4,3.3
				c0.8,1.5,0.3,3.4-0.1,5.1c-1.1,5.4,0.4,11.2,4,15.4c3.4-6.3,6.8-14,3.4-20.4c-0.9-1.7-2.3-3.2-2.9-5c-0.8-2.4-0.3-4.9-0.6-7.4
				c-0.8-5.3-6.2-9.6-11.6-8.9c-2.1,0.2-4,1.1-6,1.7c-6,1.8-12.6,1.3-18.3-1.3c9.8-6.8,19.6-13.6,29.4-20.4
				c3.2-2.2,6.8-4.6,10.8-4.3c3.5,0.3,6.5,2.7,9.7,4.2c6.4,2.9,14.4,2,19.9-2.4C881.4,488.9,881.3,481.6,884.8,476.2z"/>
		</g>
		<path id="XMLID_353_" class="st13" d="M690.7,580.2c1.7-9.2,14.6-9.3,12.5,2.3c2.2-11.3,14.2-7.2,12.5,2.1c-0.6,3.5-4,3.7-6.9,4.3
			c-1.6,0.3-2.9,1.2-4.1,2.2c-0.8,0.7-1.4,1.6-2.2,2.2c-0.3,0.2-0.6,0.1-0.8-0.1c-1.8-2.6-2.3-5-5.4-6.7
			C693.8,585,690,583.8,690.7,580.2z"/>
	</g>
	<g id="XMLID_352_">
		<rect id="XMLID_57_" x="648.3" y="423.7" class="st14" width="236.5" height="214.6"/>
		<text transform="matrix(0.9698 0 0 1 648.3054 433.4854)"><tspan x="0" y="0" class="st15 st16 st17">Guerrilla Tips</tspan><tspan x="0" y="15.5" class="st15 st16 st17"> - Move fast and work in threes. Have one </tspan><tspan x="0" y="31" class="st15 st16 st17">person on the lookout, one person holding </tspan><tspan x="0" y="46.4" class="st15 st16 st17">tools, while the other makes the graft.</tspan><tspan x="0" y="77.4" class="st15 st16 st17"> - For thinner branches, use the </tspan><tspan x="183.2" y="77.4" class="st15 st18 st17">whip </tspan><tspan x="0" y="92.9" class="st15 st18 st17">graft</tspan><tspan x="34.1" y="92.9" class="st15 st16 st17">.</tspan><tspan x="0" y="123.8" class="st15 st16 st17"> - Have some lines prepared for when </tspan><tspan x="0" y="139.3" class="st15 st16 st17">people ask what you are doing. If the </tspan><tspan x="0" y="154.8" class="st15 st16 st17">questioner seems friendly, see if they </tspan><tspan x="0" y="170.2" class="st15 st16 st17">want to join the </tspan><tspan x="93.9" y="170.2" class="st15 st18 st17">Guerrilla Grafters.</tspan></text>
	</g>
	<g id="XMLID_351_">
		
			<rect id="XMLID_55_" x="27.8" y="119.6" transform="matrix(-1 8.979249e-11 -8.979249e-11 -1 301.5235 493.3914)" class="st14" width="245.8" height="254.1"/>
		<text transform="matrix(-0.9698 0 0 -1 273.6853 364.8838)"><tspan x="0" y="0" class="st15 st16 st19">1. Using a sharp knife, split the stock branch </tspan><tspan x="0" y="14.1" class="st15 st16 st19">down the center, making a V. Shave the scion on </tspan><tspan x="0" y="28.1" class="st15 st16 st19">two sides into a tapering wedge, blunt the end </tspan><tspan x="0" y="42.2" class="st15 st16 st19">so that it’s even.</tspan><tspan x="0" y="70.3" class="st15 st16 st19">2. Insert this wedge into the branch, careful to </tspan><tspan x="0" y="84.4" class="st15 st16 st19">line up the </tspan><tspan x="57.5" y="84.4" class="st15 st18 st19">cambium </tspan><tspan x="117.9" y="84.4" class="st15 st16 st19">layer. Set the scion to one </tspan><tspan x="0" y="98.5" class="st15 st16 st19">side if the scion and stock branches don’t match </tspan><tspan x="0" y="112.5" class="st15 st16 st19">completely; this way at least one side of the </tspan><tspan x="0" y="126.6" class="st15 st16 st19">cambium will make contact.  </tspan><tspan x="0" y="154.8" class="st15 st16 st19">3. Hold the graft union firmly; start from below </tspan><tspan x="0" y="168.8" class="st15 st16 st19">the graft, wrap the graft carefully in a spiral</tspan><tspan x="235" y="168.8" class="st15 st16 st19">-</tspan><tspan x="0" y="182.9" class="st15 st16 st19">ling fashion with grafting tape. Pull the tape </tspan><tspan x="0" y="197" class="st15 st16 st19">tautly to be sure the cut surfaces are touching. </tspan><tspan x="0" y="225.1" class="st15 st16 st19">4. Wrap the tape beyond the graft onto the scion </tspan><tspan x="0" y="239.2" class="st15 st16 st19">to cover all cuts, secure with  a rubber band.</tspan></text>
	</g>
	<g id="XMLID_350_">
		<polygon id="XMLID_54_" class="st14" points="586.7,152.3 333,151.3 333,123.8 586.7,124.8 		"/>
		<text transform="matrix(-1 -8.400000e-04 8.400000e-04 -1 586.7259 142.407)"><tspan x="0" y="0" class="st15 st16 st20">The </tspan><tspan x="22.2" y="0" class="st15 st18 st20">wedge graft</tspan><tspan x="95.5" y="0" class="st15 st16 st20"> is the grafting style Guerrilla </tspan><tspan x="0" y="14.1" class="st15 st16 st20">Grafters use for simplicity.</tspan></text>
	</g>
	<rect id="XMLID_348_" x="321.5" y="530.8" class="st5" width="272.5" height="104"/>
	<g id="XMLID_3_">
		<g id="XMLID_433_">
			<path class="st1" d="M551.2,605.1c-0.4,0.3-0.2,0.8-0.4,1.2c-1.1,0.6-1.7,1.5-2,2.7c-1.8-0.3-2.7,0-4.2,0.3
				c-0.1,0-0.4-0.4-0.4-0.4c-2.5,1.1-3.1,2.2-5.9,1.3c-0.4-1.1-2-0.5-2.7-1.4c-0.4,0.3-0.9,0.2-1.4,0.4c-0.2,1-1.8,0.7-1.8,1.8
				c-2.9,0.8-17.4-2.1-12.3,16h-2c-1.1-17.1-8.1-18.2-11.5-19.4c-1.6,0.6-1.2,2.7-2.3,3.6c-0.6,0.4-1.7,0.7-2.3,0.1
				c-0.1-1.4-1.2-1.5-2-0.7c-1-0.5-1.6-1.5-1.6-2.6c-0.3-0.1-0.6-0.2-0.9-0.3c-0.8,0.9-2.1,2.2-3.4,1.2c-0.6-0.5-1-1.1-1.4-1.7
				c0,1.3,0.3,2.6,0.6,3.8c-2.2,0.7-2.8,2.8-5.4,3.3c-2-0.7-6.1,0-5.9-3.1c-0.4-0.7-1.2-1.1-1.9-1.1c-0.8,6.2-0.6,13.1,0.1,19.5
				c-1.1,0.2-2.4,0.2-3.5-0.1c0.9-5.8,1.7-12.2,0.8-18.1c-0.5,0-1-0.2-1.6-0.4c-0.4,0.2-0.6,0.3-0.9,0.5c-0.5,1-1,2.7-2.3,2.7
				c-2.2-1.1-6.2,1.2-8.8-1c0.1-0.6-0.4-0.7-0.8-0.9c-0.1,0-0.2,0-0.3,0c-0.5-0.4-0.7-1.1-1-1.6c-1.1-0.1-2.4-0.4-3.4,0.3
				c-0.1,0.8,0.7,1.5-0.1,2.3c0.1,1.4,1.9,1.6,2.6,2.5c-0.1,0.3-0.7,0.6-1,0.7c-1-0.2-0.7,1.1-1.2,1.6c-0.9-0.7-1-2-1.7-2.9
				c-0.1,0-0.2-0.1-0.3-0.1c-0.1-0.1-0.2-0.2-0.3-0.2c-1,0.7-1.5-0.1-2.5,0c-1.5,3.4-2.1,7.4-1.2,11.1l-2.9,0.1
				c1-3.4,2.3-7.3,0.5-10.7c-0.9-0.7-2.1-0.7-3.1-0.5c-0.1,0.2-0.4,0.5-0.4,0.8c0.2,0.7,0.5,1.4,0.2,2.1c-0.3,0.1-0.7,0.1-0.8,0
				c-0.2-0.4-0.8-0.8-1.2-0.5c0,0.6,0,1.4-0.8,1.6c-0.3-0.2-0.7-0.4-0.9-0.6c-0.5-0.5-0.8-1-1-1.7c-1.3,1.4-1.9-0.8-3.6-1.5
				c-0.4-0.2-2.4-0.2-3.3-1l-2.3,0c0-2.6-0.1-5.2-0.5-7.8c-0.6,0-1.4-0.3-2.1-0.5c-0.5,0.2-0.8,0.4-1.2,0.6
				c-0.6,1.4-1.3,3.5-3.1,3.5c-0.7-0.3-1.4-0.4-2.3-0.4c0.2,0.1,0.3,0.3,0.5,0.4c0.1,0.3,0,0.5,0,0.6c-0.5,0.1-1.2,0.1-1.6,0.4
				c-0.2,0.4-0.3,0.9-0.3,1.2c0.2,0.2,0.7,0.3,0.9,0.5c-1,1.8-0.6,3.8-0.2,5.6c-1.6,0.5-2.1,2.1-4,2.4c-1.4-0.5-4.4,0-4.3-2.3
				c-0.3-0.5-0.8-0.8-1.4-0.8c-0.6,4.5-0.4,9.5,0,14.2c-0.8,0.1-1.8,0.2-2.6-0.1c0.6-4.3,1.3-8.9,0.6-13.2c-0.4,0-0.8-0.2-1.1-0.3
				c-0.3,0.1-0.4,0.3-0.7,0.4c-0.3,0.8-0.7,1.9-1.7,2c-1.6-0.8-4.5,0.9-6.4-0.7c0.1-0.6-0.5-0.5-0.8-0.8c-0.6-2-1.3-3.7-0.1-5.5
				c-0.3-0.1-0.7,0-0.9-0.1c0.7-1,0.4-1.6-0.2-2.3c-1.6,0.1-3.4,0.4-5,1.1l-0.1-0.2v-49.1c1.1-0.2,2.3,0.1,3.2,1.4
				c2.3,0.4,2.4,3.7,4.7,4.2c0,1.9,1.6,3.9,3.2,4.9c1,0,2,0,3,0.3c0.2-1.7,0.7-3.2,1.7-4.6c0.4-6.1,4-11.2,1-17.2
				c2.9,0.3,2.6-3.3,3.6-5c0.8-0.2,1.8,1.2,2.5,0.1c-1.7-3.1,2.2-3.6,2.4-6.2c5.1,0.7,7.7-6.4,13-3.9c0.5,2.1,2.8,1.9,2.4,4.5
				c1.1,1.2,1.4-0.5,2.3-0.7c4,5.2,7.9,9,10.3,14.6c0.7-0.1,1.3-0.4,1.8-0.3c0.1,3.1,1.3,4.6,1.3,7c3.1,2.5-0.6,8.3,4.8,9
				c0.1,0.5,0.1,0.8,0,1.1c-1.7-0.1-1.4,2.1-2.8,2.6c-0.7,1.8,1.7,2.2,2.8,2.8c0.7,1.5-1.5,1.6-2.2,2.3c-0.1,0.4-0.2,1-0.2,1.4
				c0.9,0.4,1.7,0.8,1.9,1.3c-0.7,1.9-1.8,3.7-3.1,5.3c1.5,0.7,2,2.3,3.6,3.1c0.1,0.4,0.1,0.7,0,1c1.3-0.1,2.6-0.2,3.8-0.3
				c-0.3-3-0.5-5.9,1.2-8.2c0.3-4.6,3-8.5,0.7-13c2.2,0.2,1.9-2.5,2.7-3.8c0.6-0.1,1.4,0.9,1.9,0c-1.3-2.4,1.7-2.8,1.8-4.7
				c3.9,0.5,5.8-4.8,9.9-2.9c0.4,1.6,2.1,1.5,1.8,3.4c0.8,0.9,1.1-0.4,1.7-0.6c3,4,6,6.8,7.8,11.1c0.5-0.1,1-0.3,1.4-0.2
				c0.1,2.4,1,3.5,1,5.3c2.4,1.9-0.5,6.3,3.6,6.8c0.1,0.3,0.1,0.6,0,0.8c-1.3-0.1-1.1,1.6-2.1,2c-0.6,1.4,1.3,1.7,2.1,2.1
				c0.6,1.1-1.1,1.2-1.7,1.7c-0.1,0.3-0.1,0.7-0.1,1.1c0.7,0.3,1.3,0.6,1.4,1c-0.5,1.5-1.3,2.8-2.3,4c0.7,0.3,1.2,0.9,1.7,1.5
				c1-1.2,2.2-2.3,4-2.1c0.3-1.9,2.7-1.1,4.1-1.3c-0.1-0.3-0.2-0.6-0.2-0.8c-1.7-0.9-3-2.1-4.4-3.2c0.6-1.7-1-3.1-0.7-4.8
				c1.4-2.3,3.6-5.3,6.6-4c2.1-0.8,2-2.8,2.5-4.5c0.2-0.1,0.3-0.1,0.4-0.2c1-0.4,2-0.5,2.9,0.3c0.3-0.2,0.4-0.4,0.5-0.6
				c-0.5-2.5,1.4-3.8,3.6-4c0.5-0.5,0.4-1.2,0.6-1.8c0.3-0.2,0.6-0.3,0.8-0.3c1,0.5,2.4,0.6,3.3-0.1c-0.1-0.4-0.8-0.6-1.1-0.9
				c0-0.7,0.7-1.1,1.3-1.2c0.7-3.4,5.6-8.1,8.4-4.1c2.3,0.4,2.4,3.7,4.7,4.2c0,1.9,1.6,3.9,3.2,4.9c1.2,0,2.3-0.1,3.5,0.5
				c0.2,0.1,0.3,0.3,0.5,0.4c-0.3,2,3,2.5,1.8,4.9c1.2,0.7,2.4,0.4,3.7,0.3c2.1,1.1,1.9,3.9,3.8,4.9c-0.5,0.7-0.2,1.6,0,2.4
				c-1.1,1.2-1.8,2.5-2.2,4.1c-0.4,0.2-0.9,0.2-1.4,0.2c1,1.3,1.5,2.9,2.3,4.3c-0.4,1.7-1.3,3-2.6,4.2c-0.3,0.5-0.1,1.3,0.2,1.8
				c1.4,0.2,2.5-1.1,3.9-1.1C549.5,601.9,550.7,603.1,551.2,605.1z"/>
			<path class="st1" d="M435.2,613.9c-0.1,5.4,0.2,11,0.7,16.2c-1.5,0.2-3.2,0.3-4.6-0.2c0.7-5.2,1.5-10.7,1.6-16.1L435.2,613.9z"/>
			<path class="st6" d="M394.5,611.7l0.1,0.2c-3.5,1.5-6.1,5.4-3.4,15.2h-2c-1.1-19-8.1-18.8-11.5-19.9c-1.5,0.6-1.2,2.2-2.3,3.1
				c-0.6,0.5-1.7,0.7-2.2,0.1c-0.1-1.4-1.2-1.5-2-0.7c-1-0.5-1.6-1.5-1.6-2.6c-0.3-0.1-0.6-0.2-0.9-0.3c-0.8,0.9-2.1,2.2-3.4,1.2
				c-1.8-1.6-2.2-4.1-3.1-6.3c0.1-0.2,0.1-0.6,0.3-0.9c2.3-1.5,3.4-5.4,6.8-5.1c0.4-1.9,2.8-1.1,4.1-1.3c-0.1-0.3-0.2-0.6-0.3-0.8
				c-1.7-0.9-3-2.1-4.4-3.2c0.6-1.7-1-3.1-0.7-4.8c1.4-2.3,3.6-5.3,6.6-4c2.1-0.8,2-2.8,2.5-4.5c0.2-0.1,0.3-0.1,0.4-0.2
				c1-0.4,2-0.5,2.9,0.3c0.2-0.2,0.3-0.4,0.5-0.6c-0.5-2.5,1.4-3.8,3.6-4c0.5-0.5,0.4-1.2,0.6-1.8c0.3-0.2,0.6-0.3,0.8-0.3
				c1,0.5,2.4,0.6,3.3-0.1c-0.1-0.4-0.8-0.6-1.1-0.9c0-0.7,0.7-1.1,1.3-1.2c0.5-2.3,2.8-5.1,5.2-5.6V611.7z"/>
		</g>
		<g id="XMLID_432_">
		</g>
	</g>
	<g id="XMLID_417_">
		<g id="XMLID_2_">
			<g id="XMLID_446_">
				<path class="st2" d="M268.8,484.6c1,1.1,0.1,33.5-0.3,39.9c-0.4,6.3,0.7,14.5,0,16.2s-4.9,33.5-4.9,33.5
					c0.6-4.2-6.3-50.3-15.7-40.9c-0.2-6.4-0.3-15.3,0.2-18c0.8-4.2-7.1-8.5-8.9-11.7c-2.3-4.3,7.7-0.4,8.6-0.6
					c-0.2-1-0.7-1.7-1.1-2.6c-1-2.5-0.1-6.7-0.4-9.5c-0.2-2.7-0.2-5.4,0.3-8.1C262.6,496.3,267.2,488.1,268.8,484.6z"/>
				<path class="st6" d="M247.9,533.3c9.3-9.5,16.3,36.7,15.7,40.9C263.6,574.2,254.1,529.9,247.9,533.3z"/>
				<path class="st5" d="M268.8,484.6c-1.7,3.5-6.3,11.6-22.1-1.8C244.9,472.6,267.9,483.6,268.8,484.6z"/>
				<path class="st5" d="M263.6,574.2c0,0-10.2-1.4-10.2-1.8c0-0.4-4.9-30-5.2-32.1c-0.1-0.7-0.2-3.5-0.3-7
					C254.1,529.9,263.6,574.2,263.6,574.2z"/>
			</g>
			<g id="XMLID_442_">
			</g>
		</g>
	</g>
	<g id="XMLID_415_" class="st21">
		<polygon id="XMLID_347_" class="st11" points="174.1,491 248.1,535.5 246.1,538.3 255,539.3 251.1,531.2 249,534.1 175,489.7 		
			"/>
	</g>
	<g id="XMLID_346_">
		<rect id="XMLID_53_" x="337.6" y="417" class="st14" width="240.7" height="107.8"/>
		<text transform="matrix(0.9698 0 0 1 337.6082 425.8994)"><tspan x="0" y="0" class="st15 st16 st19">Use a bit of colored electrical tape, a bread bag </tspan><tspan x="0" y="14.1" class="st15 st16 st19">tie, or even an RFID tag to code your graft </tspan><tspan x="0" y="28.1" class="st15 st16 st19">with information. Keep a personal grafting </tspan><tspan x="0" y="42.2" class="st15 st16 st19">journal.</tspan><tspan x="0" y="70.3" class="st15 st16 st19">Watch your graft, and care for the tree. In 2-6 </tspan><tspan x="0" y="84.4" class="st15 st16 st19">weeks, remove rubber bands. It takes 2-5 years </tspan><tspan x="0" y="98.5" class="st15 st16 st19">for a graft to bear fruit. </tspan></text>
	</g>
	<g id="XMLID_345_">
		<rect id="XMLID_51_" x="32.8" y="479.3" class="st14" width="194.3" height="99.6"/>
		<text transform="matrix(0.9698 0 0 1 32.8201 489.0537)"><tspan x="0" y="0" class="st15 st16 st17">The </tspan><tspan x="24.4" y="0" class="st15 st18 st17">vascular cambium</tspan><tspan x="149.7" y="0" class="st15 st16 st17"> of the </tspan><tspan x="0" y="15.5" class="st15 st16 st17">scion must be aligned with that of </tspan><tspan x="0" y="31" class="st15 st16 st17">the rootstock. In woody plants the </tspan><tspan x="0" y="46.4" class="st15 st16 st17">cambium is a very thin  layer of </tspan><tspan x="0" y="61.9" class="st15 st16 st17">green just below the bark where </tspan><tspan x="0" y="77.4" class="st15 st16 st17">water and sugar travel.</tspan></text>
	</g>
	<rect id="XMLID_129_" x="8.6" y="634.8" class="st6" width="600.1" height="46.3"/>
	<g id="XMLID_344_">
		<rect id="XMLID_50_" x="942.6" y="282.7" class="st14" width="254.8" height="47"/>
		<text transform="matrix(-0.9698 0 0 -1 1197.3933 319.8457)"><tspan x="0" y="0" class="st15 st16 st19">Many cities in North America line the streets with </tspan><tspan x="0" y="14.1" class="st15 st16 st19">ornamental pears, plums and cherries, all in the </tspan><tspan x="0" y="28.1" class="st15 st16 st19">Rose Family. These trees bloom in the spring.</tspan></text>
	</g>
	<g id="XMLID_532_">
		<g id="XMLID_536_">
			<path id="XMLID_343_" class="st6" d="M1091.4,209.3c-0.9,1.2-5.7,7.3-7.6,8c0.3-2.5,3.3-9.2,3.7-9.9c0.5-0.7-0.8-1.5-1.6,0.6
				c-0.8,2.1-1.8,5.7-3,9.4c-1.1,3.7,0,1.5,1.4,0.8s9.3-7.6,9.3-8.5C1093.6,208.6,1093.2,206.8,1091.4,209.3z"/>
			<path id="XMLID_342_" class="st22" d="M1086.7,208.3c1.3-0.4,2.9,0,2.7-1.3c-0.2-1.3-0.7-1.6,0.3-3.2c1-1.6,2.5-10.3,1.6-11.5
				c-0.9-1.2,1.7-4.9-0.1-4.6c-1.8,0.3-6.5,7.2-10.1,6.7s-7.7-0.1-8.3,0.8c-0.5,0.9-2.2,0.4-2.2,1.9c-0.1,1.5-1.4,2.9,0.3,4.8
				c1.7,1.9,1.7,5.1,5,5.1c3.2,0.1,8.4,0.8,8.7,1.3C1084.9,208.8,1086.7,208.3,1086.7,208.3z"/>
			<path id="XMLID_341_" class="st6" d="M1039.7,208.5c1.3,0.7,1.5,0.8,2.8,2.2c1.4,1.4,2,2,2.3,2.5c0.2,0.5,0.5,1.1,1.6,1.7
				c1.1,0.5,6.6,5.6,8.6,6.7s2.2,1.4,3.6,2.5c1.3,1.1,2.3,2.4,3.8,2.7c1.4,0.3,12.2,3.2,13.5,2.9c1.3-0.3-0.9-0.3-0.3-0.3
				s-10.5-2.6-11.6-2.9s-6.3-4.2-7.2-4.7s-2.5-1.2-2.4-2c0.2-0.8,1.6-6.2,1.8-6.5s0.7-2.9,0.4-2.2c-0.3,0.8-1.1,1.1-1.5,2.6
				c-0.5,1.5-1.7,5.5-1.5,5.8c0.2,0.3-7.8-7.5-8.3-7.6s-1.2-0.9-1.1-1.2s0-0.6,1.1-1.3c1.1-0.8,1.4-1.7,1.4-1.7s-1.8-0.9-1.8,0
				c0.1,0.9-1.2,1.2-1.2,1.7c0,0.5-1.1,0.5-1.1,0.4c0-0.2-0.4-0.8-0.9-1.2c-0.5-0.5-2-1.1-2-1.1S1039.2,208.2,1039.7,208.5z"/>
			<g id="XMLID_7_" class="st23">
				<g id="XMLID_24_">
					<path class="st24" d="M1029.1,198.5c0-0.6-1.9-2.7-1.2-3.2c0.7-0.5,1.6-0.8,2.2-0.9s-1.6-0.3-1.6-1.2c0-0.9,0.2-1.4,0.9-1.5
						c0.7-0.1,1.1-0.9,1.1-1.4c0-0.5,0.7-1.5,1.6-1.6c0.9-0.1,1.1-1.2,2.1-1.6c1-0.3,1.5,0.2,2.3-0.6s2-1.9,3.2-1.6
						c1.1,0.3,1.1,0.6,1.6-0.1c0.5-0.6,3.4-0.7,4,0c0.6,0.7,1.2,0.4,1.9,0.7s0.7,0.7,1.5,1.1c0.8,0.5,2.5,2.4,2.5,2.8
						c0,0.5,0.1,0.7,0.8,0.9c0.7,0.2,1,1.2,1,1.8s1,0.9,1,1.5s-0.3,2.6,0,2.7l-14.3,4.7l-8.4,2.8c-0.2-0.1-0.3-0.1-0.5,0.2
						c0.1-0.3,0.1-0.5-0.4-0.5c-1,0-2.4-0.2-2.4-1.1c0-0.9-0.2-1.2,0-1.9C1028.2,200.1,1029.1,199.1,1029.1,198.5z"/>
					<path class="st25" d="M1031.7,206.2c-0.8-0.7-1.4-1.4-1.4-1.4s0.3-0.3,0.4-0.6l0.5-0.2c0.2,0.1,0.3,0.4,0.3,0.7
						c0.1,0.5,1.2,1,3,0.3c1.8-0.6,2.2-2,3-2.1c0.8-0.2,0,1.1,0,1.8s2.1-1.5,2.1-2.5c0-0.2,0.1-0.3,0.2-0.3c0.5-0.1,1.8,1.1,1.7,1.8
						c-0.1,0.8-0.2,1.7,0.9,2.1c1,0.3,1.5-1,1.6-1.5c0.2-0.6,1.9-1.2,3.2-1.2c1.2,0,1.4-1.4,1.6-2.4c0.2-1,0.8-0.9,2.1-0.9
						s2.4-2.5,2.9-3.4c0.3,0.1,0.7,2.5,0,2.5s0,0.5-0.8,0.9s-3.3,1.7-3.6,2.7c-0.4,1-1.4,3.5-1.9,3.7c-0.6,0.1-0.2,0.9-1.1,1.4
						s-1.4,1.5-1.7,0.9c-0.3-0.6-0.5-0.9-0.9-0.5c-0.5,0.5-1.6,0.2-2.4,0c-0.8-0.2-1.5-0.3-2.6-0.2c-1.1,0.1-0.6-0.5-1.4-0.5
						s-1.8-0.1-2.8,0c-1,0.1-1.5,0.8-2.3-0.2S1032.5,206.9,1031.7,206.2z"/>
					<path class="st24" d="M1030.7,204.3C1030.7,204.3,1030.7,204.3,1030.7,204.3c0.2-0.3,0.4-0.3,0.5-0.2L1030.7,204.3z"/>
					<path class="st24" d="M1031.3,204.1l8.4-2.8l0.2,0.7c-0.1,0-0.2,0.1-0.2,0.3c0,0.9-2.1,3.1-2.1,2.5s0.8-2,0-1.8
						c-0.8,0.2-1.2,1.5-3,2.1c-1.8,0.6-3,0.2-3-0.3C1031.6,204.5,1031.4,204.2,1031.3,204.1z"/>
					<path class="st24" d="M1039.9,202.1l-0.2-0.7l14.3-4.7c-0.6,0.9-1.7,3.4-2.9,3.4s-1.9-0.1-2.1,0.9c-0.2,1-0.4,2.4-1.6,2.4
						c-1.2,0-3,0.6-3.2,1.2c-0.2,0.6-0.6,1.9-1.6,1.5c-1-0.3-1-1.2-0.9-2.1C1041.7,203.2,1040.4,202,1039.9,202.1z"/>
				</g>
				<g id="XMLID_25_">
					<path class="st26" d="M1030.7,204.3c0.1-0.3,0.1-0.5-0.4-0.5c-1,0-2.4-0.2-2.4-1.1c0-0.9-0.2-1.2,0-1.9
						c0.2-0.7,1.1-1.7,1.1-2.3c0-0.6-1.9-2.7-1.2-3.2c0.7-0.5,1.6-0.8,2.2-0.9s-1.6-0.3-1.6-1.2c0-0.9,0.2-1.4,0.9-1.5
						c0.7-0.1,1.1-0.9,1.1-1.4c0-0.5,0.7-1.5,1.6-1.6c0.9-0.1,1.1-1.2,2.1-1.6c1-0.3,1.5,0.2,2.3-0.6s2-1.9,3.2-1.6
						c1.1,0.3,1.1,0.6,1.6-0.1c0.5-0.6,3.4-0.7,4,0c0.6,0.7,1.2,0.4,1.9,0.7s0.7,0.7,1.5,1.1c0.8,0.5,2.5,2.4,2.5,2.8
						c0,0.5,0.1,0.7,0.8,0.9c0.7,0.2,1,1.2,1,1.8s1,0.9,1,1.5s-0.3,2.6,0,2.7s0.7,2.5,0,2.5s0,0.5-0.8,0.9s-3.3,1.7-3.6,2.7
						c-0.4,1-1.4,3.5-1.9,3.7c-0.6,0.1-0.2,0.9-1.1,1.4s-1.4,1.5-1.7,0.9c-0.3-0.6-0.5-0.9-0.9-0.5c-0.5,0.5-1.6,0.2-2.4,0
						c-0.8-0.2-1.5-0.3-2.6-0.2c-1.1,0.1-0.6-0.5-1.4-0.5s-1.8-0.1-2.8,0c-1,0.1-1.5,0.8-2.3-0.2s0-0.3-0.8-1
						c-0.8-0.7-1.4-1.4-1.4-1.4S1030.6,204.6,1030.7,204.3"/>
				</g>
			</g>
			<path id="XMLID_340_" class="st24" d="M1042,198.5c-0.7,0.3-1.5,0.7-2.2,0.7s0.9-0.1,0.9-0.7c0.1-0.7,0.3-1.7,0.1-1.9
				s-1.2-0.4-0.8-0.5c0.4-0.1-0.1-0.6,0.4-0.8c0.5-0.2,0.7,0.1,0.6-0.7c0-0.8,0.4-2.1-0.2-2.3c-0.6-0.2,0.5,0.3,0.8,1.5
				c0.3,1.2,0,2,0.4,2.1s1-0.2,1.3-0.2s0.4,0.3-0.2,0.6c-0.6,0.3-1.1,0.7-0.7,0.9S1042.7,198.2,1042,198.5z"/>
			<path id="XMLID_339_" class="st27" d="M1033.5,199.5c-1.1-0.6-2.5-2.5-2.9-3.2c-0.4-0.7-1.5-2.9,0-3.3c1.5-0.5,2-0.9,2.5-0.7
				c0.5,0.2,1.2,1.1,1.8,0.8c0.5-0.3,0.2-1,0.9-0.9c0.7,0.2,2,1.4,2.4,2s-0.9,1.2-1.7,1.2c-0.8,0-1.8,0.3-1.8,1
				C1034.7,197.3,1033.9,199.8,1033.5,199.5z"/>
			<path id="XMLID_338_" class="st27" d="M1034.1,191.5c-1.1-0.4-0.9-2.7-0.4-2.9c0.5-0.2,0.7-0.9,1.4-0.4c0.6,0.5,0.2,1,1.1,0.4
				c0.8-0.6,2.4-0.4,1.5-0.1c-0.8,0.3-1,0.7-1,1.2s-0.1,0-0.6-0.1c-0.6-0.1-1.3-0.3-1.5,0.5S1034.8,191.8,1034.1,191.5z"/>
			<path id="XMLID_337_" class="st27" d="M1041.1,186c0.3,0.9,0.8,3,0.3,4.3c-0.5,1.3-0.9,2.7,0,1.2c0.9-1.5,1.4-1.5,1.1-2.8
				S1040.8,185.2,1041.1,186z"/>
			<path id="XMLID_336_" class="st27" d="M1043.2,190.5c0-1.1-0.2-1.7,0.3-2.4c0.6-0.8,0.2-1.7,1-1.8c0.7-0.1,1.4-0.1,1.6,0.3
				c0.2,0.4,0.4,1.6-0.3,1.8s-1.8,0.3-1.8,0.9S1043.3,191.1,1043.2,190.5z"/>
			<path id="XMLID_335_" class="st27" d="M1045.5,192.2c-0.4,0.6-1,0.8,0,0.8c1,0.1,1.2-0.3,1.5-0.8
				C1047.3,191.6,1046.2,191.1,1045.5,192.2z"/>
			<path id="XMLID_334_" class="st27" d="M1046.3,190.3c-0.2-0.7,0.2-0.4,0.8,0c0.5,0.4,0.8,1.2-0.8,0.4"/>
			<path id="XMLID_333_" class="st27" d="M1044.7,198.2c0.7-0.9-1.8,0.6-1.3,0.9s1.4-0.6,1.3,0.5c-0.1,1.1,0.2,1.8,0,2.4
				c-0.2,0.6-0.5,1.6,0,1.2c0.5-0.4,0.8-1.7,1.3-2.1c0.5-0.4,1.2-1.3,0.9-1.5c-0.4-0.2-0.8-0.2-1.3-0.2
				C1045,199.3,1044.5,198.5,1044.7,198.2z"/>
			<path id="XMLID_332_" class="st27" d="M1036.7,198.5c-1-0.3-0.2,1.4-1.1,1.4s-1.1-0.1-2,0.6c-0.8,0.8-1.8,1.6-0.9,1.7
				s1.6,0.2,2.5-0.4C1036.2,201.2,1037.4,198.7,1036.7,198.5z"/>
			<path id="XMLID_331_" class="st28" d="M1062.1,214.1c-0.4-0.3-0.5,0.5-1.4,0.4c-0.9-0.2-2.6-0.9-3.4-1.1s-1.1,0.4-1.1-1.6
				c0-2-1.1-1.9-1.4-1.2c-0.3,0.7-0.8,0.1-1.5-0.4s-1.1,0-1.7-1.4s-2.1-2.1-1.9-3.2c0.2-1.1-2.7-4.4-1.2-5c1.5-0.5,4.2-1.2,4.4-2.7
				s1.4-1.4,1.9-1.3c0.5,0.1,0.2-0.6,0.4-0.7c0.2-0.1,0.9-0.4,1,0s0.3,0.4,1.1-0.2c0.8-0.6,2.1-1,2.3-0.5c0.2,0.5,0.2,1.8,1.1,1.4
				c0.8-0.4,1.5-0.2,1.7,0.4c0.2,0.6,1.1,0.6,1.2,0.9c0.2,0.3,1.4,0.9,2.3,0.6c0.9-0.3,0.9,0.1,0.9,0.7c0,0.6,0,0.8,0.7,0.8
				s1.4,1.2,1.4,1.7c-0.1,0.5,0,2,0,2s0.8,2,0.4,2.3s-0.4,1.7-0.3,2.2c0.1,0.5,0.1,2-0.2,2c-0.3,0.1-0.3,0.2-0.3,0.5
				s-0.2,1.4-0.8,1.6s-0.8,1.4-1.2,1.1c-0.5-0.2-1-0.4-1.4-0.1C1064.3,213.7,1063.7,215.2,1062.1,214.1z"/>
			<path id="XMLID_330_" class="st27" d="M1081.3,198c0.2-0.5,0.5-1.7,2.5-1.6c1.9,0,2,0.2,2.5-0.4s1.7-1.9,3-2.1
				c1.3-0.1,2.4,0.1,1.9,1.5c-0.5,1.4-1,1.3-1.7,2.4c-0.7,1.1-3.7,3.4-3.8,4.1c-0.1,0.7-3.8,1.1-3.9-0.1S1081.1,198.5,1081.3,198z"
				/>
			<path id="XMLID_329_" class="st28" d="M1101,212.7c0.2-0.5,0.2-0.7,0.5-0.3c0.3,0.4,0.3,0.1,0.6,0.3c0.3,0.2,0.7,0.2,0.8,0
				c0.1-0.2,0.2-0.2,0.5-0.2c0.2,0,0.8-0.2,0.9-0.3c0.1-0.2,0.5,0.3,0.5-0.2s0-0.5,0.4-0.5s0.8-0.6,0.8-0.9s0.5-1,0.9-1.1
				c0.5-0.1,1.1-0.8,1.1-1.3c-0.1-0.5,0.3-0.8,0.8-0.9c0.5-0.2,1.6-0.6,1.8-1.4c0.1-0.8,1.1-1.8,0.7-2.2s-0.3-0.4,0.1-0.5
				c0.3-0.1,0.7-1,0.7-1.6s0.8-1.5,0-1.8c-0.8-0.3-0.6-0.6-0.2-0.7c0.3-0.1,0.2-0.7-0.2-0.7s-0.5-0.4-0.7-0.9
				c-0.2-0.4-0.8-0.2-0.8-1.2c0-1,0.2-3.8-0.5-3.8s-0.7-0.1-0.7-0.6s-1.1-0.2-1.3-0.3c-0.2-0.1-0.9-0.9-0.9-1.1
				c0.1-0.2-0.1-0.3-0.9-0.3c-0.8,0-1.1-0.1-1.5-0.7s-0.8-0.9-1.2-0.7c-0.3,0.1-0.3,0.4-0.4-0.3c-0.1-0.7-0.9-1.1-1.3-0.7
				c-0.4,0.3-0.8,0.3-1.2-0.1s-1.9-0.7-2.3-0.5c-0.4,0.1-0.5,0-0.7-0.8c-0.3-0.8-0.7-1.4-1-0.7s-2.9,0.9-3.2,1.3s-2.1,1.8-2.3,2.5
				c-0.2,0.8-0.4,1.2-0.4,1.7c0,0.6-0.3,1.8,0,2.2s0.4,0.6,0.4,1.4c0,0.8-3.1,6-2.5,7.7c0.6,1.7,0.8,4,1.5,4.2
				c0.6,0.2,0.7,0.5,1.1,0.5c0.3,0,0.9-0.4,1.1,0.3c0.2,0.7,0.8,1.1,1.1,0.7c0.3-0.4,0.3-0.5,0.5-0.2s0.7,0.6,0.9,0.2
				c0.2-0.4,0.1,0.1,0.5,0c0.4-0.1,0.6,0.1,0.8,0c0.3-0.1,1.1,0.8,1.4,0.9c0.3,0.1,0.3,0.7,0.3,1.2s0.2,0.5,0.5,0.8
				c0.3,0.4,0.7,0.5,1,0.8C1099.4,212.1,1100.9,213.2,1101,212.7z"/>
			<path id="XMLID_328_" class="st24" d="M1101.2,203.1c-1.5,0.3-3.8,0.2-5,1.1s-3.1,1.1-2.6-0.2s0.1-2.8,0.1-4.4
				c0-1.6,0.5-0.6,2.5-1.8c2-1.2,2.7-1.2,4.4-1c1.8,0.2,2.8,3,1.7,4C1101.3,201.9,1102.3,202.9,1101.2,203.1z"/>
			<path id="XMLID_327_" class="st27" d="M1057.1,210.8c0,0.9,1.2,2.5,2.3,2.4s2.5-1.5,3.2-1.2c0.8,0.3,2.7,1,2.6,0
				c-0.1-1-1.3-2.1,0-2.4s2.3,0.7,2-0.5c-0.4-1.1-0.9-1.1-0.4-2.3c0.5-1.2,0.4-0.5-0.5-2.1c-0.8-1.6-0.5-3.3-1.6-2.4
				c-1.1,0.9-2.9,2.7-1.8,0.6s1-3.3,1.4-3.3c0.5-0.1-0.3-0.9-1.6,0c-1.3,0.9-0.5,0.4-0.7-0.4c-0.2-0.8-0.6-1-1.9-0.7
				c-1.3,0.3-3,0-3.5,0c-0.5,0-0.5,0.3-0.5,0.7c-0.1,0.4-0.6,1.3-1.9,1.7c-1.3,0.4-0.9,0.8-1.9,1.1c-1.1,0.3-2.6,1.4-1.7,2
				c0.9,0.6,0.7,0.8,0.9,1.9c0.2,1.1,1.6,1.3,2,1.9c0.4,0.6-0.2,2,0.4,1.6c0.6-0.4,0.8-1.5,1.8-0.5
				C1056.9,209.7,1057.1,210,1057.1,210.8z"/>
			<path id="XMLID_326_" class="st27" d="M1055,206.7c-1.1,0.4-2.2-2.6-1-2.6c1.2,0.1,1.1,0.2,1-0.6c-0.1-0.8-0.2-0.8,0.8-0.9
				c1-0.2,1.2-1.8,1.5-1.4c0.3,0.5,0.4,1.7,0.8,1c0.4-0.7,0.4-0.8,1.2-0.4c0.8,0.4,1.3,0,1.6,0.8c0.3,0.8,0.1,1.1,1.2,1.7
				c1.1,0.6,2.3,1.1,1.8,1.7s-1.1,1.1-1.1,2c0,0.9,0.5,2-0.1,2c-0.5,0.1-0.8-0.8-1.7,0.5c-0.9,1.2-1.3,1.9-2.1,1.2
				c-0.7-0.7-0.3-1.3-1-1.8c-0.7-0.5-1.6-1-1.7-1.6C1056.2,207.6,1055.8,206.4,1055,206.7z"/>
			<path id="XMLID_325_" class="st24" d="M1056.9,206c-0.8,0.1-2.3,0.4-2-0.2c0.3-0.6,1-1.7,1-1.7s0.4-0.6,1-0.8s0.8,0.3,1.2,0
				c0.4-0.3,0.4,0,0.7,0c0.3,0,0.8,0.5,0.5,1c-0.3,0.5-0.3,1.1,0.1,0.9c0.4-0.2,0.7,0.1,0.6,0.6s-1.1,0.9-1.2,0.8
				c-0.1-0.1,0.2-1.7-0.3-1.8s-1.3-0.5-1.3,0.1C1057.2,205.5,1057.9,205.9,1056.9,206z"/>
			<path id="XMLID_324_" class="st29" d="M1057.9,208.7c0.6,0.4-0.7-1.3,0-1.3S1057.3,208.4,1057.9,208.7z"/>
			<path id="XMLID_323_" class="st27" d="M1106.8,203c1.9-1.2,2.9-4.7,1.2-5.8c-1.8-1.1-1.1-0.5-1.2-2.4c-0.1-1.9-0.4,0.1-1.6,0
				c-1.2-0.1-3.5,1.2-3.5-0.9c0-2.1-0.5-2.7-1.1-2.3c-0.6,0.4-0.8,2.8-1.9,2.3c-1.1-0.5-3.7-0.9-4.5-1.6c-0.7-0.6-1.7-1.6-1.7-1.1
				s-1,6.2,0.2,7.2c1.1,0.9,0.5,4.3-0.2,5.2c-0.7,0.8-0.9,1.3-1.6,2.2c-0.7,1-0.5,0.8,0.5,0.8c1,0,0.7,0.4,1.1,0.8s1.5,0,1.7-0.4
				c0.2-0.3,3.2-1.9,3-1.6c-0.1,0.3-0.1,1-0.5,1.6c-0.4,0.6,0.3,1.7,0.9,1.1c0.5-0.7,1.3-1.4,3.2-1.5c1.9-0.1,1.2-1.2,3.2-1.7
				C1105.8,204.3,1105.9,203.6,1106.8,203z"/>
			<path id="XMLID_322_" class="st28" d="M1085.8,179.5c-0.2-1-0.3-2.4-1.5-1.1s-2.6,1.6-2.9,2.7c-0.4,1.1,0,2.9-1.4,2.9
				c-1.4,0-2.7,0.3-2.9,0.5c-0.2,0.2-1.7,0.1-2.7,0c-1.1-0.1-3.3-0.5-2.6,0s0.2,0.2-0.6,0.7c-0.8,0.5,0.6,0.7-0.3,1
				c-0.9,0.3-1.6,1.4-1.4,1.8c0.2,0.4,0.1,1.7,0,2.4c-0.1,0.7-0.4,0.2,0.3,0.6c0.8,0.3,1.1,2.2,2.4,2.9c1.3,0.8-0.2,1.6,1.1,2
				c1.4,0.3,1.1,0.2,2.3,0.7c1.2,0.5,0.9,0.9,2,0.4c1.2-0.5,2.2,1.1,3.3,0.2s1.5-2.6,2.6-2.8c1.1-0.2,1.5-1.7,2.8-2.3
				c1.3-0.6,2-1.6,2.7-1.8s0.2-0.7,1.4-1.4s2.7,0.4,3.5-1.4c0.8-1.7,2-2,1.4-2.2s-1.1-0.2-0.6-1c0.5-0.7,0.2-0.8-0.4-0.7
				s0.5-0.9-0.1-1s-2.3,0.5-3.2,0.1c-0.9-0.5-2-0.1-2.4-1.2c-0.5-1.1-1.5-3.5-1.5-2.9C1086.9,179.3,1085.9,179.9,1085.8,179.5z"/>
			<path id="XMLID_321_" class="st27" d="M1091,186.4c-1.4,0.2-2.9,1.5-3.1,0s-0.4-1.9-1.4-1.8c-1,0.1-3.2,1.2-3.3,0
				c-0.1-1.2-1.3-1.3-1.3,0.5c0,1.8,0.1,2.6-0.4,2.9c-0.5,0.3-2.1,1.3-2.9,0.7c-0.8-0.6-1,0.6-0.8,0.9c0.2,0.3,0.4,1.5-0.1,2.4
				c-0.5,0.9-1.9,2.4-0.7,2.6s1.5-0.2,2.5,0c1,0.2,0.9,1.2,1.5,0.1c0.6-1.1,0.1-1.8,1.7-1.8c1.5,0,2.5-0.3,2.5-1.6
				c0-1.3-0.7-3.6,0.1-2.6c0.8,1.1,1.2,3,1.2,1.8c0-1.2-0.9-2.4,0.1-2.5C1087.7,187.9,1091.7,186.3,1091,186.4z"/>
			<path id="XMLID_320_" class="st30" d="M1083.1,190.4c-0.1,0.3-0.5,0.6-1.2,0.6c-0.7,0,0.4,0.8,1.2,0.5c0.8-0.3,0.5-1,0.5-1.9
				S1083.1,190.4,1083.1,190.4z"/>
			<path id="XMLID_319_" class="st27" d="M1079.1,189.8c0.7-0.6-3,0-3.8-0.2c-0.8-0.3-1.3-0.1-2-0.6c-0.8-0.5-0.8-0.3-0.8,0.3
				s0.6-0.2,2,0.4C1075.9,190.3,1078.5,190.4,1079.1,189.8z"/>
			<path id="XMLID_318_" class="st27" d="M1091.4,184.5c0.7-1.4-1.9,1.9-2.7,1.7c-0.8-0.1-1,0.5,0,0.5c1,0,2.1-0.2,2.7,0
				s0.2,0.2,0.5-0.5s1.3-1.6,1.7-1.7c0.4-0.1-1.2,1.1-2,1.2C1090.8,185.8,1091.1,185,1091.4,184.5z"/>
			<path id="XMLID_317_" class="st27" d="M1077.7,186.9c0.7-0.2-1.9,0.5-2.5,0c-0.6-0.5-1.1-0.7-1.5-0.6c-0.5,0.1,0.2-0.4-0.6-0.7
				c-0.8-0.3,0.3,0.3,1.2,0.4C1075.2,185.9,1075.9,187.3,1077.7,186.9z"/>
			<path id="XMLID_316_" class="st27" d="M1080.5,187.1c-0.7,0.2-0.8,0.5-1.1-0.2c-0.3-0.7-1.1-1-1.1-1s1.2,2.2,2.1,1.8
				C1081.4,187.3,1081.1,186.9,1080.5,187.1z"/>
			<path id="XMLID_315_" class="st27" d="M1105.3,207.1c0.1,0.9-0.7,0.4-1.1,0.7s-0.6,1-0.7,1c-0.2,0-1.1,0.5-1.4,0.2
				c-0.3-0.3-0.7-0.5-0.7-0.2c0,0.2-0.6-0.2-1,0.7c-0.4,0.8-1,1.8-1.1,0.3c-0.1-1.4-0.6-2.5-1-3.2c-0.5-0.8-0.3-1-1.2-0.8
				s-2.4,0.9-3.7,0.4s-2.1-2.5-2-3.7c0.1-1.2,0.2-2.2,0.3-1.3c0.1,0.9-0.1,1.7,0.7,2.9s1.4,2.3,3,1.6s2.1-1,2.1-1.8
				c0-0.7,0.1-2.3,0.6-1.6c0.5,0.7,0.7,1,0.6,2c-0.1,1,0,1.2,0.4,2.2c0.4,1.1-0.3,0.8,0.6,0.6c1-0.2,1,0.2,1.9-0.6
				c1-0.8,1.1-0.7,2.2-0.9s1.2,0.1,1.6,0c0.4-0.1,0.5,1.2,1.1,0.1c0.6-1.2,0-1.6,1-2.1c1-0.5,2.4-0.5,2.5-1.2
				c0.1-0.7,0.4-1.2,0.4-0.2s0.7,2.9,0,2.9s-2.4-0.1-2.9,0.5C1106.9,206.4,1105.3,206.7,1105.3,207.1z"/>
			<path id="XMLID_314_" class="st29" d="M1102.1,196.4c0.1-1,0.1-2.7,1.4-3.2c1.3-0.5,3.3-2.4,2.8-1.6c-0.5,0.8-2.1,1.4-2.1,2.5
				c0.1,1.1,0.6,1.8-0.4,2.3C1102.8,196.8,1102,197.2,1102.1,196.4z"/>
			<path id="XMLID_313_" class="st29" d="M1095.8,187.7c0.1-0.9-0.3,0.9-0.3,2c0.1,1.1,0.4,2-0.1,2.8s-0.1,1.9-0.2,2.4
				c-0.1,0.5-0.6,0.1-1.2,0c-0.6-0.1-0.1,0.1-0.5-0.9c-0.4-1-1.1-1.9-1.3-1.6c-0.2,0.3-0.7,0.9-0.8,1.6s-0.7,1.7,0,1.3
				s1.1-1,1.2,0.1c0.1,1.1,0.8,2.4,0.5,1.7c-0.3-0.7,0-0.2,0.4,1.1c0.4,1.3-0.1,1.8,0.9,1.9s-0.2,0.3,0.2-0.9s0.4-2.2,0.3-2.8
				c-0.1-0.6,0.5-0.3,0.8-1.5C1096.2,193.8,1095.7,188.6,1095.8,187.7z"/>
			<path id="XMLID_312_" class="st29" d="M1102,204.9c0-1.3-0.4-2,1.1-1.7c1.5,0.3,2.4,0.7,3.1,0.8c0.7,0.1-0.1,0.9-1.4,1.3
				c-1.2,0.4-2.3-0.2-2.6-0.5S1102,204.9,1102,204.9z"/>
			<path id="XMLID_311_" class="st29" d="M1106.6,200.9c1.9-0.7,3.2-0.6,3.2-1.2s-1.1-1.9-2.1-1.8c-1,0.1-2.5,0.7-2,0
				c0.5-0.7-0.2-1.2-0.6-1.2s-3.4,0.4-3.5,0.9c-0.1,0.5-0.6,1.5-0.6,1.5s-0.9,0.8-0.2,0.9c0.7,0.1,2-0.5,1.7,0.3
				c-0.3,0.8-1.4,1.1-1.1,1.6c0.2,0.5,1.2,0.8,2.4,0.6C1105,202.3,1105.6,201.2,1106.6,200.9z"/>
			<path id="XMLID_310_" class="st24" d="M1100.5,202.5c-0.8-0.1-0.6,0.2-0.8-0.9c-0.2-1.1,0.2-1.6,0.6-1.6c0.4-0.1,0.1,0.5,1,0.6
				C1102.2,200.7,1101.1,202.6,1100.5,202.5z"/>
			<path id="XMLID_309_" class="st24" d="M1096.3,201.2c-0.7,0.3-1,0.6-1,0.9c-0.1,0.3-0.7,1.3-1.2,0.7s-0.7-1.8-1.2-1.9
				c-0.5-0.1-0.5-0.4-0.5-1.3s0.2-2.4,0.6-1.2s-0.1,2,1.4,1.9C1096,200.1,1097.2,200.8,1096.3,201.2z"/>
			<path id="XMLID_308_" class="st29" d="M1079.1,203.5c-0.4-0.2-1.3-1.1-1.3-1.5c0-0.4,0.6-1,0.5-0.4c-0.1,0.5-0.1,0.9,0.9,1.9
				C1080.4,204.5,1079.1,203.5,1079.1,203.5z"/>
			<path id="XMLID_307_" class="st29" d="M1080,203.1c0.3,0.4-0.7-1.4-0.9-1.7s-0.6-0.7-0.5-0.9c0.2-0.2,0.4-0.3,0.3,0.2
				C1078.9,201.2,1079.9,203,1080,203.1z"/>
			<path id="XMLID_306_" class="st29" d="M1080.5,202.4c0-0.8,0-1.9,0-2.3c0-0.4-0.6-0.6-0.8-0.5c-0.1,0.1-0.2-0.5,0-0.5
				c0.2-0.1,1.2,0.8,1.1,1.6C1080.6,201.5,1080.5,202.4,1080.5,202.4z"/>
			<path id="XMLID_305_" class="st24" d="M1097.1,197.9c-0.2-0.5-0.2-0.7-0.7-1c-0.6-0.4-0.7-0.6-0.8,0.3c-0.1,0.8,0.3,1-0.1,0.8
				c-0.3-0.1-0.3,1-0.3,1.2C1095.3,199.5,1097.4,198.6,1097.1,197.9z"/>
			<path id="XMLID_304_" class="st29" d="M1100.7,195.3c-0.1-1.1,1.4-3.2-0.2-2.4c-1.6,0.8-1.4,3.4-2.4,2c-1-1.4-2.7-1.9-1.9-0.8
				c0.9,1.1,1,0.9,1.4,1.9c0.5,1-0.2,3.1,0.2,2.6C1098.3,198.2,1100.7,196.2,1100.7,195.3z"/>
			<path id="XMLID_303_" class="st29" d="M1101.6,204.9c-0.9,0.4-0.8,0.7-1.6,0c-0.8-0.7-1.4-1.4-1,0.2s0.7,2.6,1.7,1.5
				C1101.6,205.5,1102,204.7,1101.6,204.9z"/>
			<path id="XMLID_302_" class="st27" d="M1079.1,207.1c0-1,1.3-2,2.4-1.8c1.1,0.2,1.9,0.8,3.1,0.7s2.3-0.7,2.5-1.5s1.1-1.9,0-1.9
				s-2.4,0.3-1.7-0.8c0.7-1.1,0.5-1.3,1.7-1.9c1.2-0.6,1.4-0.3,1.4-1.2c0-1-2.1,0.9-3.1,1.7c-1,0.8-1.4,1.9-2.3,3
				c-0.9,1.1-1.1,3.5-2.2,3.7C1079.7,207.2,1079.1,207.1,1079.1,207.1z"/>
			<path id="XMLID_301_" class="st27" d="M1084.2,205.6c-0.5,0.6,0.8,0.6-2.1,0.7s-6.7-0.6-6.6-2.7c0.1-2.1,0.5-1.7,1.9-2.9
				c1.5-1.2,3-0.9,3.3-1.6c0.3-0.7,0.3,0.5,1.4,0.5C1083.3,199.6,1085.3,204.4,1084.2,205.6z"/>
			<path id="XMLID_300_" class="st31" d="M1075.6,229.3c-0.9-0.5-3.2-1.2-3.7-1.7s-1.2-3-1.8-3.5c-0.6-0.5-1.5-1.8-1.5-2.9
				c0-1.1-0.5-2.4-0.5-2.9c0-0.5-0.2-1.1,0-1.9c0.2-0.8-0.4-1.2-0.1-1.9c0.3-0.7,0.9-2.1,1.1-3c0.2-1,0.5-2.3,0.5-2.7
				c0-0.3-0.6-0.7-0.3-1.1s0.4-0.4,0.4-1.4s-0.7-1.2,0-0.9c0.7,0.2,0.7,1.1,0.7,0.2c0-0.9-0.2-1,0.2-1.6c0.3-0.7,1.2-1.1,0.8-1.6
				c-0.4-0.5,0-1.1,0-1.5c0-0.4,0.1-2,0.8-0.2c0.7,1.9,2,2,2.2,2.5c0.2,0.5,0.8,0.8,0.8,0.8s0.2,1.3,0.5,1.5c0.4,0.2,0.7,0.5,1,1
				c0.3,0.5,0.7,0.4,0.8,0.8s1.2,0.8,1.4,1.4c0.2,0.6,1.3,1.7,1.3,2.5c0,0.8,0.6,1.7,0.9,2c0.3,0.3,0.9,0.9,0.9,1.7
				c0.1,0.7,0.2,1.2,0.4,2c0.2,0.8,0.5,1.8,0.5,2.3c0,0.5,0.3,0.4,0,2.3c-0.3,2-0.4,2.3-0.5,2.9c-0.1,0.6-0.4,0.8-0.8,1.7
				c-0.3,0.8-0.2,0.8-0.6,1.1c-0.5,0.2-1,0.1-1.1,0.6c0,0.5-0.4,1-1.3,1.3c-1,0.3-1.3,1.1-2,0.9S1075.6,229.3,1075.6,229.3z"/>
		</g>
		<g id="XMLID_299_">
			<text transform="matrix(-0.9167 0.3995 -0.3995 -0.9167 1043.1274 170.2808)" class="st2 st16 st32">Cherry</text>
		</g>
	</g>
	<g id="XMLID_469_">
		<g id="XMLID_473_">
			<path id="XMLID_298_" class="st6" d="M984.9,219.4c-0.4,2.5-2.9,14.8-3.2,15.1c-0.3,0.3-0.6,1.7-0.4,2.1c0.2,0.4-0.6,5.4-2,6.9
				c-1.4,1.6-2.3,3.4-2.7,4.2c-0.4,0.8-0.1,2.3,1,0.5s2.6-6,3.1-5.2c0.5,0.8,1.9,2.7,2.2,3c0.3,0.3,1.9,2.8,2.1,3.6
				c0.2,0.8,1,2,1.5,2.3c0.5,0.4,1.1,0.7,1.1,0s-2.2-4.3-2.6-5c-0.5-0.7-2.9-4.3-2.4-4.4c0.5-0.1-0.6-0.7-0.4-1.3s0.5-3.9,0.5-4.9
				s1.1-2.6,1.1-3.4s0.3-5,1-4.9c0.7,0.1,1.8,0.6,1.8-0.1s-0.6-2-0.6-3.2c0-1.3,1.1-6,0.6-6C985.8,218.8,985,218.9,984.9,219.4z"/>
			<path id="XMLID_297_" class="st24" d="M967.2,255.3c-0.8,0-12.7-1.5-12.7-2.3c0-0.8-3.5-1.4-3.7-2c-0.2-0.6,0,7,2.6,8.4
				c1.1,0.6,1.8,0.6,2.1,0.6s0.5-0.1,0.9,0c0.4,0.1,0.7,0.7,1.5,0.3c0,0,1,0.2,1.2,0.1c0.2-0.1,0.2,0.4,0.6,0s0.3,0.2,0.6,0.1
				s0.6,0,0.7-0.3c0.1-0.2,0.5,0.3,0.8,0c0.3-0.3,1-0.8,1-0.7c0,0.1,0.5,0.4,0.8,0c0.2-0.4,0.5-0.6,0.6-0.4c0.1,0.1,1.4-0.3,2.1-0.8
				c0.6-0.5,3.3-2.1,3.5-2.7S967.7,255.3,967.2,255.3z"/>
			<path id="XMLID_296_" class="st24" d="M968.4,258.7c-0.3,0.1-0.9,0.4-1.2,0.4s-0.4,0-0.7,0.2c-0.3,0.3-0.6,0.5-0.8,0.5
				s-1.9,1.5-2.2,1.5c-0.3,0-1,0.2-1.3,0.5s-0.3,0.6-0.6,0.6s-0.7,0.6-1,0.6s0,0.5-0.5,0.6c-0.4,0.1-0.6,0.2-0.6,0.2v0.5l-0.7,0.3
				c0,0,0.2,0.3,0,0.4c-0.2,0.1-0.3,0.3-0.4,0.5s0,0.6,0,0.6s-0.3,0.5-0.4,0.7c-0.1,0.2,0.2,0.4,0,0.5c-0.2,0.1-0.2,0.5,0,0.5
				c0.2,0,0.1,0.3-0.1,0.4c-0.3,0.1,0.1,0.3-0.3,0.5c-0.3,0.2,0.1,0.2,0,0.4c-0.1,0.1,0,0.2-0.1,0.6s0,0.4,0,0.6s-0.4,2.7,0.2,2.4
				c0.5-0.2,3.2-2.2,3.5-2.2s0.2-0.4,0.5-0.7s1-0.8,1.2-1.2c0.2-0.4,0.9-1,1.4-1.4s1.7-1.4,1.9-2.1c0.2-0.7,0.5-1,0.9-1.3
				c0.3-0.3,0.8-0.9,0.8-1.6s0.3-1.1,0.7-2c0.4-0.9,0.8-1.8,1-2.3C969.8,257.9,969.3,258.4,968.4,258.7z"/>
			<path id="XMLID_295_" class="st24" d="M973,253.8c-0.1-1,0.2,2,0,2.4c-0.2,0.4-0.4,1.4-0.4,1.7s0,0.3,0,1.2c0,0.9,0.3,0.8,0.3,1
				c0,0.2,0.3,0,0.3,0.3c0,0.3,0,0.4,0.2,0.7c0.2,0.2,0.5,0.3,0.6,0.6c0,0.3,0.4,0.3,0.5,0.6c0.1,0.3,0.4,0.6,0.5,0.9
				s0.2,0.8,0.5,0.8c0.3,0,0,0.3,0.4,0.3s0.7,0.2,0.8,0.5c0.1,0.2,0.6,0.8,0.6,0.8s0.6,0,0.6,0.2s0.3,0.6,0.5,0.7s0.8,1.1,1.1,1
				c0.2-0.1,0.8,0.4,1.1,0.3c0.3-0.1,1.6,0.3,1.4,0s0.3-0.1,0.5-0.1s0.8,0.7,1.2,0.2s0.8-0.2,0.8-0.4c0-0.2,0.8,0.5,1.1,0.1
				c0.2-0.3,0.3-0.3,0.6-0.5s-0.6-0.7-1.3-0.6c-0.6,0-2.4-1.5-3.6-2.2c-1.2-0.7-5-3.9-5.8-4.7S973.2,258.3,973,253.8z"/>
			<path id="XMLID_294_" class="st24" d="M986.2,252.4c0.1,0.5-0.8,1.5-0.9,1.3c-0.1-0.2-0.5-0.9-1.9-1.3s-3.4-2-4.6-2.7
				c-1.2-0.7-2.4-2-2.9-2.2c-0.5-0.2-1.2-0.2-0.8,0.8c0.4,1,0.9,4.4,1.3,4.7c0.4,0.3,0.3,0.4,0.5,0.7c0.2,0.3-0.1,0.5,0,0.7
				c0.1,0.1,0,0.4,0.2,0.6c0.1,0.2,0.2,0.5,0.5,0.6c0.2,0.1,0.3,0.1,1.1,0.3s1.2,0.4,2.2,0.2c0.9-0.2,1.4,0,1.6-0.2
				c0.2-0.2,1.3-0.4,2-0.9c0.7-0.5,1.4-0.6,1.7-1.3c0.3-0.7,0.4-0.8,0.8,0c0.4,0.8,1.5,2.1,1.5,3.8c0,1.7-0.3,2.7-0.5,3.5
				c-0.2,0.8-0.7,2.8-0.5,4.1s0.1,2.6,0.2,3.2c0,0.6,0.1,0.8,0.3,1.5c0.2,0.6,0.3,1,0.5,1.3c0.2,0.3,5.2,7.9,10.6,6.9
				c2.8-4.7,1-7,1-7.3s0-0.1,0-0.8s0.2-0.1-0.1-1c-0.3-0.8,0.2-0.7,0-1.1c-0.2-0.4-0.7-0.7-0.7-1.3s0.2-1.2-0.1-1.2s-0.9-0.2-1-0.6
				c-0.1-0.3-1-1.2-1.4-1.7c-0.4-0.4-0.9-1.1-1.5-1.4c-0.6-0.3-0.8-1-1-1.4c-0.2-0.4-3.1-1.5-3.8-2.1s-2.1-3.7-2.4-4.2
				c-0.3-0.6-0.9-1.5,0.6-0.3c1.5,1.2,2.2,1.7,3.2,2.6c1,0.9,1,1.5,1.6,1.6c0.5,0,0.5,0.1,1.1,0.3s0.9,0.1,1.5,0.8
				c0.6,0.7,1,0.6,1.3,0.6c0.3,0,0.8,0.3,1.5,0.4c0.7,0.1,0.9,0.2,1.3,0.1c0.4-0.1,0,0.1,0.8,0c0.9,0,0.3-0.5,1-0.5s0.6-0.5,1-0.5
				c0.3,0,0.8-0.1,1.2-0.4c0.4-0.3,0.5-0.3,0.8-0.6s1.1-0.6,1.3-0.7c0.2-0.1,0.4-0.4,0-0.8c-0.4-0.4-0.8-1.7-1.4-1.7
				c-0.6,0-1-0.3-2.2-0.3c-1.2,0-2.6-0.1-3-0.1s-2.2-0.3-2.3-0.3s-5.4,0-6.3-0.2s-2.9-1.3-3.3-1.7c-0.3-0.4-1.9-1.3-1.6-0.3"/>
			<path id="XMLID_293_" class="st33" d="M974.3,248.5c1.3-1.6,2.4-2.3,2.2-4.7c-0.2-2.3-2.8-3.5-3-4.2c-0.2-0.7-0.1,1.3-0.5,1.8
				s0.2,1,0,1.7c-0.2,0.7-0.6,1.9-0.5,2.4c0.1,0.6,0.7,1.2,0.7,1.2s0.6,0,0.6,0.7C973.8,248.1,973.9,249,974.3,248.5z"/>
			<path id="XMLID_292_" class="st33" d="M973.8,248.1c-0.6-1.4-1.6-3.4-2-4.4s-1.6-2.8-2.7-3.1c-1.2-0.3-2.2,0-2.2,0
				s-0.2,0.7-0.8,1c-0.6,0.3-0.8,0.2-0.6,1.2c0.2,1,0.2,2,1.3,2.8c1.1,0.9,3.8,2.8,3.2,2.5c-0.6-0.3-2.5-1.2-4.6-0.7
				c-2.1,0.5-3.4,1.2-3.4,2.4s0.9,1.7,1.4,2.2s1.9,1.8,2.7,1.1c0.9-0.7,1.9-0.4,2.8-1.3c1-0.9,1.1-0.1,0.5,0.7
				c-0.5,0.8-0.9,1.7-1.7,2.3c-0.7,0.6-2.9,3.2-0.6,3.5c2.3,0.2,4,0.4,4.3-1.3s0.7-3.8,0.9-4.5c0.2-0.7,1.1-1.4,0.8,0
				c-0.3,1.4-0.7,2.9,0.5,3.5c1.2,0.6,2.2,1.3,2.2,0c0-1.3,1.2-6.3-0.5-6.5C973.8,249.1,973.8,248.1,973.8,248.1z"/>
			<path id="XMLID_291_" class="st24" d="M973.7,251.1c-0.7,0.6-1.3,0.4-1.7-0.6s-0.6-1.6,0-1.8c0.6-0.2,2.2-0.5,2.3-0.1
				C974.3,248.9,973.7,251.1,973.7,251.1z"/>
			<path id="XMLID_290_" class="st34" d="M969.3,247.4c-0.9-0.6-2.6-1.6-3.2-1.6c-0.6,0-0.5,0.7-0.6,0c-0.1-0.7-1.5-0.4-1,0
				c0.5,0.4,0.6,0.1,1.5,0.3c0.9,0.2,2.7,1.1,2.8,1.3C969,247.6,969.3,247.4,969.3,247.4z"/>
			<path id="XMLID_289_" class="st34" d="M969.5,252.6c-0.9,0.4-2.8,1.5-3.1,1.6c-0.3,0.1,0.1,0.7-0.2,0.7s-0.8-0.6-0.5-0.9
				c0.3-0.3,0-0.2,0.5-0.3s2.6-1.1,3.1-1.4C969.8,252.1,969.8,252.5,969.5,252.6z"/>
			<path id="XMLID_288_" class="st34" d="M966.8,251.4c-0.3-0.1-0.7-0.3-0.4-0.5c0.2-0.2,0.2-0.2,0.4,0
				C967,251.1,966.8,251.4,966.8,251.4z"/>
			<path id="XMLID_287_" class="st34" d="M965,251.7c0.2,0.2,0,0.5,0,0.5c-0.3-0.1-0.7-0.3-0.4-0.5"/>
			<path id="XMLID_286_" class="st34" d="M965.3,248.4c0.2,0.2,0,0.5,0,0.5c-0.3-0.1-0.7-0.3-0.4-0.5"/>
			<path id="XMLID_285_" class="st34" d="M966.2,249.3c0.2,0.2,0,0.5,0,0.5c-0.3-0.1-0.7-0.3-0.4-0.5"/>
			<path id="XMLID_284_" class="st34" d="M966.2,247.8c0.2,0.2,0,0.5,0,0.5c-0.3-0.1-0.7-0.3-0.4-0.5"/>
			<path id="XMLID_283_" class="st34" d="M969.5,250.8c0.2,0.2,0,0.5,0,0.5c-0.3-0.1-0.7-0.3-0.4-0.5"/>
			<path id="XMLID_282_" class="st34" d="M969.2,249.1c0.2,0.2,0,0.5,0,0.5c-0.3-0.1-0.7-0.3-0.4-0.5"/>
			<path id="XMLID_281_" class="st34" d="M969.9,248.7c0.2,0.2,0,0.5,0,0.5c-0.3-0.1-0.7-0.3-0.4-0.5"/>
			<path id="XMLID_280_" class="st34" d="M969.9,248.1c0.2,0.2,0,0.5,0,0.5c-0.3-0.1-0.7-0.3-0.4-0.5"/>
			<path id="XMLID_279_" class="st34" d="M970.8,247.8c0.2,0.2,0,0.5,0,0.5c-0.3-0.1-0.7-0.3-0.4-0.5"/>
			<path id="XMLID_278_" class="st34" d="M970.8,253.9c0.2,0.2,0,0.5,0,0.5c-0.3-0.1-0.7-0.3-0.4-0.5"/>
			<path id="XMLID_277_" class="st34" d="M968.6,254.4c0.2,0.2,0,0.5,0,0.5c-0.3-0.1-0.7-0.3-0.4-0.5"/>
			<path id="XMLID_276_" class="st34" d="M969.2,246.1c0.2,0.2,0,0.5,0,0.5c-0.3-0.1-0.7-0.3-0.4-0.5"/>
			<path id="XMLID_275_" class="st34" d="M970.5,246.1c0.2,0.2,0,0.5,0,0.5c-0.3-0.1-0.7-0.3-0.4-0.5"/>
			<path id="XMLID_274_" class="st34" d="M968.3,244.6c0.2,0.2,0,0.5,0,0.5c-0.3-0.1-0.7-0.3-0.4-0.5"/>
			<path id="XMLID_273_" class="st34" d="M969.9,243.8c0.2,0.2,0,0.5,0,0.5c-0.3-0.1-0.7-0.3-0.4-0.5"/>
			<path id="XMLID_272_" class="st34" d="M971.9,245.8c0.2,0.2,0,0.5,0,0.5c-0.3-0.1-0.7-0.3-0.4-0.5"/>
			<path id="XMLID_271_" class="st33" d="M991.1,245.8c-0.4-0.4-1-0.7-2.2-0.7c-1.2,0.1-2.3,0.4-2.7,1.2c-0.5,0.8-1.7,5,1.5,5.4
				c3.2,0.4,3.5-0.9,4-1.9C992.3,248.9,992.1,246.8,991.1,245.8z"/>
			<path id="XMLID_270_" class="st33" d="M992.8,248.7c-0.4,1.2-2.1,3.7-0.8,5.2c1.3,1.5,4.4,3.2,4.8,0.6c0.4-2.6-0.1-3.1-0.2-3.8
				c-0.1-0.7-0.7-1.9-1.7-2S993.4,247,992.8,248.7z"/>
			<path id="XMLID_269_" class="st33" d="M997.6,250.1c0.7,0.4,1.7,1.2,2.8,1c1.1-0.2,2.2-0.2,2.4-0.7s0.9-0.6,0.9-1.1s0.4-1,0-1.5
				s-1.4-2-1.9-2s-1.7-0.4-2.3-0.5c-0.6-0.1-2.3,0-2.5,0.5s-2.3,0.4-1.8,1.6C995.8,248.6,997.1,249.8,997.6,250.1z"/>
			<path id="XMLID_268_" class="st33" d="M995.8,245.8c1.1-0.5,2.3-0.4,3.8-1.8s1.8-1.9,1.8-2.4c0-0.5,0.1-1.1-0.3-1
				c-0.5,0-0.5,0-0.5-0.3c0-0.3-0.1-0.6-0.6-0.6c-0.5,0-0.3-0.5-1-0.5s-1.9-0.5-2.7,0.7c-0.8,1.2-1.7,1.6-1.8,2.8
				C994.2,244.1,993.5,246.9,995.8,245.8z"/>
			<path id="XMLID_267_" class="st33" d="M993.4,244.1c0.2-0.9,1.1-1.9,0.9-3.1s-0.6-2.9-0.9-3.3c-0.3-0.4-0.4-0.9-0.8-1.1
				c-0.4-0.1-1.2-0.3-1.8,0c-0.6,0.3,0.2,0.4,0,1.1s-2.3,3.5-1,4.9c1.3,1.4,1.6,1.6,2.1,2.3C992.3,245.5,993.2,245,993.4,244.1z"/>
			<path id="XMLID_266_" class="st27" d="M994.9,248.1c-0.3,0.5-0.6,1.3-1,0.9c-0.4-0.5-0.3-0.1-1.1-0.3s-2.6-0.3-1.8-0.9
				c0.8-0.5,1.7-1.4,0.8-1.4c-0.9,0-1.8-0.8-1.1-1.1c0.7-0.3,0.9-0.7,1.5-0.9c0.6-0.2,1.1,0.3,1.5,0c0.4-0.3,1.2-0.3,1.4,0.3
				c0.2,0.5,0.8,1.2,0.7,1.5c-0.1,0.3,0.2,1.3-0.7,1.8C994.2,248.3,994.9,248.1,994.9,248.1z"/>
			<path id="XMLID_265_" class="st24" d="M994.1,247.5c0.3-0.6,1-0.6,0.8-0.8c-0.1-0.3-0.4,0-0.4-0.8s0.2-0.8-0.4-0.7
				s-1,0.4-1.4,0.4s-0.4,0.4-0.4,0.8c0,0.4,0.4,0.2,0.8,0.7S993.8,248.1,994.1,247.5z"/>
			<path id="XMLID_264_" class="st34" d="M990,247c-0.3,0.4-1.1-0.7-0.6-0.9c0.5-0.2,0.6,0.3,0.8,0.3S990.4,246.3,990,247z"/>
			<path id="XMLID_263_" class="st35" d="M979.3,250.2c0.1,0,0.3-0.1-0.1,0.6c-0.3,0.4-1.1-0.7-0.6-0.9"/>
			<path id="XMLID_262_" class="st34" d="M991.6,250.6c-0.3,0.4-1.1-0.7-0.6-0.9s0.6,0.3,0.8,0.3C991.9,250,992,249.9,991.6,250.6z"
				/>
			<path id="XMLID_261_" class="st34" d="M994.5,251.8c-0.3,0.4-1.1-0.7-0.6-0.9c0.5-0.2,0.6,0.3,0.8,0.3
				C994.8,251.2,994.9,251.1,994.5,251.8z"/>
			<path id="XMLID_260_" class="st34" d="M997.4,248.3c-0.3,0.3-1.1-0.5-0.6-0.6c0.5-0.1,0.6,0.2,0.8,0.2S997.9,247.8,997.4,248.3z"
				/>
			<path id="XMLID_259_" class="st34" d="M998.9,248c-0.3,0.3-1.1-0.5-0.6-0.6c0.5-0.1,0.6,0.2,0.8,0.2S999.3,247.5,998.9,248z"/>
			<path id="XMLID_258_" class="st34" d="M1001,246.8c-0.3,0.3-1.1-0.5-0.6-0.6s0.6,0.2,0.8,0.2S1001.4,246.3,1001,246.8z"/>
			<path id="XMLID_257_" class="st34" d="M998.3,245c-0.3,0.3-1.1-0.5-0.6-0.6c0.5-0.1,0.6,0.2,0.8,0.2S998.8,244.6,998.3,245z"/>
			<path id="XMLID_256_" class="st34" d="M999.8,243.6c-0.3,0.3-1.1-0.5-0.6-0.6c0.5-0.1,0.6,0.2,0.8,0.2S1000.2,243.1,999.8,243.6z
				"/>
			<path id="XMLID_255_" class="st34" d="M998,243c-0.3,0.3-1.1-0.5-0.6-0.6c0.5-0.1,0.6,0.2,0.8,0.2S998.5,242.5,998,243z"/>
			<path id="XMLID_254_" class="st34" d="M997.4,243.9c-0.3,0.3-1.1-0.5-0.6-0.6c0.5-0.1,0.6,0.2,0.8,0.2
				C997.7,243.5,997.9,243.4,997.4,243.9z"/>
			<path id="XMLID_253_" class="st34" d="M995.7,243.3c-0.3,0.3-1.1-0.5-0.6-0.6c0.5-0.1,0.6,0.2,0.8,0.2
				C996,242.9,996.1,242.8,995.7,243.3z"/>
			<path id="XMLID_252_" class="st34" d="M991.6,243c-0.3,0.3-1.1-0.5-0.6-0.6c0.5-0.1,0.6,0.2,0.8,0.2S992,242.5,991.6,243z"/>
			<path id="XMLID_251_" class="st34" d="M993.3,243c-0.3,0.3-1.1-0.5-0.6-0.6c0.5-0.1,0.6,0.2,0.8,0.2S993.8,242.5,993.3,243z"/>
			<path id="XMLID_250_" class="st34" d="M993.6,241.8c-0.3,0.3-1.1-0.5-0.6-0.6c0.5-0.1,0.6,0.2,0.8,0.2S994.1,241.4,993.6,241.8z"
				/>
			<path id="XMLID_249_" class="st34" d="M996.8,251c-0.4,0-0.3-1.1,0.1-0.8c0.4,0.3,0.2,0.6,0.3,0.7C997.3,251,997.5,251,996.8,251
				z"/>
			<path id="XMLID_248_" class="st36" d="M986.8,230c-0.4,0.6-0.4,1.9,0,1.9c0.4,0,0.9,0.6,1.1,0.9c0.2,0.3,1.1,0.6,1.4,0
				c0.4-0.6,0.7-1,1.2-1c0.5,0,1.2-0.7,0.8-1.1c-0.4-0.4-1.2-1.4-1-1.8c0.2-0.3,0-1-0.3-1c-0.2,0-0.6,0.5-1.2,0.3
				c-0.6-0.1-0.8-0.3-1.3,0.1C987,228.7,987,229.7,986.8,230z"/>
			<path id="XMLID_247_" class="st27" d="M991.1,232c-0.3,0.4-0.9,0.9-1.3,0.8c-0.4,0,0.2-0.8,0.8-1.1
				C991.1,231.5,991.3,231.6,991.1,232z"/>
			<path id="XMLID_246_" class="st27" d="M988.3,233c-0.3-0.2-0.7-0.9-1.5-1.1c-0.8-0.2-0.2,0.7,0.2,0.9S988.6,233.2,988.3,233z"/>
			<path id="XMLID_245_" class="st27" d="M986.4,230c0.1,0.8,0.9-0.7,0.7-1.2S986.3,229,986.4,230z"/>
			<path id="XMLID_244_" class="st27" d="M991.3,230.6c-0.5-0.5-1.1-1.3-1-1.8s1-0.1,1,0.6S991.3,230.6,991.3,230.6z"/>
			<path id="XMLID_243_" class="st36" d="M998.6,233.9c0.9,0.1,2.9,0.5,3.4-0.5c0.5-1,0.8-2.5-0.2-3.1c-1-0.6-3.3-1.5-3.7,0.3
				C997.8,232.4,997.9,233.8,998.6,233.9z"/>
			<path id="XMLID_242_" class="st27" d="M989,227.5c-0.5,0-0.2,0.1-0.6,0.3c0.3,0.3,0.7,0.4,1.7,0C989.6,227.6,989,227.5,989,227.5
				z"/>
			<path id="XMLID_241_" class="st27" d="M991.6,230.3c0.9,0.2,3.9,0.9,4.4,1.3s0.6,1.3,1.3,1.5s0.5,0.8,1.3,0.8
				c0.8,0,1.6,0.2,1.3,0c-0.3-0.2-1,0-1.6-0.8s-1.2-1-0.2-1.3c0.9-0.3,2.3-0.3,1.9-0.7s-1.5-0.4-1.4-0.8c0.1-0.4,0.9-0.5,1.3-0.7
				c0.3-0.1,0.1-0.4-0.7-0.2s-1.2,1.7-2.1,1.6c-1-0.1-4.7-1.1-5.2-1.1C991.4,229.9,990.6,230.1,991.6,230.3z"/>
		</g>
		<g id="XMLID_240_">
			<text transform="matrix(-1 0 0 -1 967.5115 226.0317)" class="st2 st16 st37">Plum</text>
		</g>
	</g>
	<g id="XMLID_46_">
		<path id="XMLID_239_" class="st6" d="M1138.6,253.6c-4.8,0.6-12.9-2.9-14-9s-1-13.1,1.4-16.5c2.4-3.4,3.3-4,2.9-5.9
			c1.8,2.6,5.7,6.6,8.3,8.3c2.6,1.7,7.9,11.6,7.6,14.2C1144.5,247.4,1144.8,252.8,1138.6,253.6z"/>
		<path id="XMLID_238_" class="st38" d="M1154.2,236.9c-1.4,0.5-6.1-1.1-6.1-3.7c0-2.6,2.2-5.7,3.6-5.7c1.4,0,2.6,1.4,4,1.2
			C1157.1,228.6,1158.6,235.4,1154.2,236.9z"/>
		<path id="XMLID_237_" class="st38" d="M1158.8,237c-0.7-3-0.3-8.5,5.9-8.2c6.2,0.3,1.7,8.2,1.7,8.2s7.6,1.8-0.7,7
			c-2.9,1.1-5.9,1-5.5-0.7C1160.6,241.6,1158.8,237,1158.8,237z"/>
		<path id="XMLID_236_" class="st38" d="M1157.1,246.9c2.1,1.7-3.8,4.7-6.8,4c-3-0.7-5.5-0.8-3.6-2.9
			C1148.7,245.9,1153.2,243.7,1157.1,246.9z"/>
		<path id="XMLID_235_" class="st38" d="M1148.1,244.7c-2,0.1-7.5-5.9-4.8-7.7c2.6-1.7,6.8-2.4,8.5,0
			C1153.5,239.4,1151.4,244.6,1148.1,244.7z"/>
		<path id="XMLID_234_" class="st34" d="M1159.6,244c-0.5,1.9-0.5,2.6-1.1,2c-0.6-0.6-1.7-1.6-2.2-2c-0.6-0.4-0.7-0.5-2.2,0
			c-1.5,0.5-3.8,2.6-3.3,0.7c0.5-1.9,1.9-2.8,2.5-3.3c0.6-0.5-1.3-1.5-2.6-2.2c-1.2-0.8-0.1-1.2,1.1-1.2c1.3,0,2.6,1.5,3.6-0.7
			c1-2.1,1.3-4.4,2.8-1.2c1.4,3.3,1.9,2.7,3.5,3c1.6,0.3,1.5,1-0.8,2.6C1158.5,243.4,1159.8,243.2,1159.6,244z"/>
		<path id="XMLID_233_" class="st15" d="M1157.6,242.2c-1.2,0.1-2.6,0.2-2.7-1c-0.1-1.2-0.3-2.1,0.7-2.1c1,0,3-0.3,2.9,1.1
			C1158.5,241.4,1158.3,242.1,1157.6,242.2z"/>
		<path id="XMLID_232_" class="st39" d="M1154.3,235.4c0.2-0.9,0.3-2.1-0.3-1.4c-0.6,0.8-0.4,0.6-1.1,0.6c-0.7-0.1-0.9,0.6,0.3,1.2
			C1154.5,236.4,1154.2,235.9,1154.3,235.4z"/>
		<path id="XMLID_231_" class="st38" d="M1142.9,259.7c-1.1-1.1-4.4-4.6-6.5-2.7c-2.1,1.9-2,3.4-2.9,4.6c-0.9,1.2-0.2,4.2,1.3,4.3
			c1.5,0.1,4.6,0.8,6.1,0C1142.4,265.2,1146.2,263.1,1142.9,259.7z"/>
		<path id="XMLID_230_" class="st38" d="M1138.9,267.8c-1.1,2.3-2.1,6.8,2.3,7.1s5-3.5,4.8-5.5c-0.1-1.9,0.8-3.5-0.4-3.5
			S1140,265.5,1138.9,267.8z"/>
		<path id="XMLID_229_" class="st38" d="M1148.4,270.2c0.8-2.1,0.3-6.5,4-3.8c3.7,2.7,7.2,3.2,6.1,5.4c-1.1,2.2-1.8,1.8-2.5,1.8
			c-0.7,0-1.5,2.6-3.1,1C1151.3,273,1148.4,270.2,1148.4,270.2z"/>
		<path id="XMLID_228_" class="st38" d="M1151.8,263.9c-0.9-0.9-2.4,0.2-2.2-1.4s0.9-2.5,0-3.2c-1-0.7-2.1-1.1-0.4-2.8
			c1.7-1.7,1.6-2.5,3.3-0.9c1.6,1.6,2.4,6.2,1.1,7S1151.8,263.9,1151.8,263.9z"/>
		<path id="XMLID_227_" class="st34" d="M1146.3,260.7c-2-1.5-4.4-3.7-3.4-1s1.9,2.2,0.1,4.1c-1.8,1.9-1.6,1.5,0.9,1.6
			c2.5,0.2,2.1,1.4,3,3.8c0.8,2.4,0.8,2.4,1.5,0c0.8-2.4-0.9-2.8,1.7-3.8s2.7-1.4,0.7-1.6c-2-0.3-2.7,1.7-1.7-1.7s1.5-4.6-0.8-2.6
			C1146,261.7,1146.9,261.1,1146.3,260.7z"/>
		<path id="XMLID_226_" class="st15" d="M1146,263.1c-0.6,0.8-0.9,1,0,1.6c0.9,0.6,0.8,1.7,1.4,0.8s1.3-1.8,0.3-2.4
			S1146.5,262.5,1146,263.1z"/>
		<path id="XMLID_225_" class="st39" d="M1144.2,271.1c-0.1-0.8-0.1-3-0.8-3s-3.7,1.5-2.4,1.5c1.3,0,1.9-1.4,2.1-0.4
			C1143.3,270.2,1144.3,271.9,1144.2,271.1z"/>
		<path id="XMLID_224_" class="st38" d="M1160.3,253.7c-1.3-2.2-3.7-5.2-1.8-6.7c1.9-1.5,7.7-5,7.9-1.3c0.2,3.7-0.5,5-0.8,5.7
			c-0.3,0.7-0.1,0.4,1.5-0.5c1.7-0.9,4.1-0.8,4.1,0.7c0,1.5,0.3,2.1,1.3,2.1s0.7,2-0.3,2.8c-1,0.7-1.1,0.4-1,1.9s0.4,1.5-2.1,1.5
			c-2.5,0-2.5,0.4-1.9,0.6c0.6,0.1-0.6,3.6-1.7,4.6c-1.1,1-2.5,2.1-2.8,2.5s-2.9,0.8-2.9-0.4c0-1.2,0.2-0.6-1.2-0.2
			c-1.4,0.4-5.7,1.3-5.6-1.1s-0.4-6.2,1.7-6.6c2.1-0.4,3.8-1.4,2.3-1.9c-1.5-0.5-7.1-0.6-7-3.1c0.1-2.6,4.3-7.3,6.5-4.5
			c2.2,2.8,1.2,4.6,2.1,4.6C1159.5,254.4,1160.6,254.2,1160.3,253.7z"/>
		<path id="XMLID_223_" class="st34" d="M1164.7,257c0.9-2.1,2.5-3.8,0-2.6c-2.5,1.2-2.6,3.4-3.7,1.1c-1.1-2.3-1.8-1.7-1.4,0.5
			c0.4,2.2,1.1,0.5-0.9,2c-2,1.5-1.7,2.9,0.5,2.1c2.1-0.8,1.1-0.1,1.7,1.9c0.6,2,0.3,1.5,1.4,0s0.7-1.5,2.6-1.7s2.9-0.1,1.2-1.1
			C1164.4,258.1,1164.1,258.5,1164.7,257z"/>
		<path id="XMLID_222_" class="st39" d="M1158.7,262.7c-0.5-0.5-1.4-0.5-1.1,0C1157.8,263.2,1158.7,262.7,1158.7,262.7z"/>
		<path id="XMLID_221_" class="st39" d="M1167.3,257.7c-0.1-0.7-0.4-0.6-0.4-0.6s-0.4,0.6,0,0.6
			C1167.3,257.7,1167.3,258.1,1167.3,257.7z"/>
		<path id="XMLID_220_" class="st39" d="M1156.4,253.7c0.2-1.1-0.4-0.3-0.9,0C1155.1,254,1156.3,254.5,1156.4,253.7z"/>
		<path id="XMLID_219_" class="st38" d="M1178.5,251c-0.1-1.2-4.1-3.6-2.2-4.5c1.9-0.9,1.9-2.1,1.9-3.2c0-1.1,4.1-1.1,4.7,0.7
			c0.6,1.8,0.5,3.8,0,5.3c-0.5,1.5,1.3,3.2,1.5,1.7c0.2-1.5,3.2-6.1,4.6-6.9c1.5-0.8,2.8-0.1,3.9,0.6c1,0.7,2.4,5,1.3,5.9
			s-1.7,2.2-0.4,1.5c1.3-0.8,4.9-0.5,4.6,2.7c-0.3,3.1-1.7,6.8-4.1,6.7s-18.9,0.4-18.9-2.8c0.1-3.2,0.1-7.2,1.1-7.3
			S1178.5,251.9,1178.5,251z"/>
		<path id="XMLID_218_" class="st34" d="M1181.9,256c-1.8-1.9-3.1-1.6-1.7-2.3s2.8,1.4,3-0.5c0.2-1.9,0.4-1.9,1.4-0.6
			c1,1.3,0.7,1.1,2.3,1.1c1.5,0,0.9,0,0,1c-0.9,1-0.5,0.9,0,2.3c0.5,1.4-0.4,1-1.2,0.8c-0.8-0.2-1.9-0.6-3.1,0
			c-1.2,0.6-1.6,0.2-1.1-0.8C1181.9,256,1181.9,256,1181.9,256z"/>
		<path id="XMLID_217_" class="st39" d="M1189.3,255.5c0.1-0.6-0.4-1.4-0.6-0.6C1188.6,255.7,1189.1,256.1,1189.3,255.5z"/>
		<path id="XMLID_216_" class="st6" d="M1164.3,268.3c-2.3-2.8,3.2-13.3,27-7.5C1188.4,266.5,1174,279.9,1164.3,268.3z"/>
		<path id="XMLID_215_" class="st39" d="M1181.9,251c0-0.6-0.3-1.3-0.4-0.6C1181.4,251.1,1181.9,251.6,1181.9,251z"/>
		<ellipse id="XMLID_214_" class="st39" cx="1156.5" cy="256" rx="0.3" ry="0.5"/>
		<ellipse id="XMLID_213_" class="st39" cx="1154.2" cy="255.8" rx="0.3" ry="0.5"/>
		<ellipse id="XMLID_212_" class="st39" cx="1158.7" cy="263.9" rx="0.3" ry="0.5"/>
		<ellipse id="XMLID_211_" class="st39" cx="1156.7" cy="262.6" rx="0.3" ry="0.5"/>
		<ellipse id="XMLID_210_" class="st39" cx="1142.9" cy="271.3" rx="0.3" ry="0.5"/>
		<ellipse id="XMLID_209_" class="st39" cx="1141.8" cy="267.5" rx="0.3" ry="0.5"/>
		<ellipse id="XMLID_208_" class="st39" cx="1155.5" cy="233.8" rx="0.3" ry="0.5"/>
		<ellipse id="XMLID_207_" class="st39" cx="1153.9" cy="232.3" rx="0.3" ry="0.5"/>
		<ellipse id="XMLID_206_" class="st39" cx="1152.6" cy="233.8" rx="0.3" ry="0.5"/>
		<ellipse id="XMLID_205_" class="st39" cx="1161.3" cy="236.1" rx="0.3" ry="0.5"/>
		<ellipse id="XMLID_204_" class="st39" cx="1163.8" cy="236.1" rx="0.3" ry="0.5"/>
		<ellipse id="XMLID_203_" class="st39" cx="1162.7" cy="234.5" rx="0.3" ry="0.5"/>
		<ellipse id="XMLID_202_" class="st39" cx="1162.7" cy="242.6" rx="0.3" ry="0.5"/>
		<ellipse id="XMLID_201_" class="st39" cx="1163.8" cy="242.1" rx="0.3" ry="0.5"/>
		<ellipse id="XMLID_200_" class="st39" cx="1149.8" cy="240.6" rx="0.3" ry="0.5"/>
		<ellipse id="XMLID_199_" class="st39" cx="1149.4" cy="238" rx="0.3" ry="0.5"/>
		<ellipse id="XMLID_198_" class="st39" cx="1154.5" cy="247.4" rx="0.3" ry="0.5"/>
		<ellipse id="XMLID_197_" class="st39" cx="1153.4" cy="246.2" rx="0.3" ry="0.5"/>
		<ellipse id="XMLID_196_" class="st39" cx="1152.3" cy="247.8" rx="0.3" ry="0.5"/>
		<ellipse id="XMLID_195_" class="st39" cx="1155.1" cy="248.3" rx="0.3" ry="0.5"/>
		<ellipse id="XMLID_194_" class="st39" cx="1151.2" cy="246.7" rx="0.3" ry="0.5"/>
		<ellipse id="XMLID_193_" class="st39" cx="1162.7" cy="253.2" rx="0.3" ry="0.5"/>
		<ellipse id="XMLID_192_" class="st39" cx="1161.7" cy="252" rx="0.3" ry="0.5"/>
		<ellipse id="XMLID_191_" class="st39" cx="1167.3" cy="255.2" rx="0.3" ry="0.5"/>
		<ellipse id="XMLID_190_" class="st39" cx="1169.6" cy="256.5" rx="0.3" ry="0.5"/>
		<ellipse id="XMLID_189_" class="st39" cx="1167.6" cy="256.5" rx="0.3" ry="0.5"/>
		<ellipse id="XMLID_188_" class="st39" cx="1163.8" cy="262.1" rx="0.3" ry="0.5"/>
		<ellipse id="XMLID_187_" class="st39" cx="1139.7" cy="263.1" rx="0.3" ry="0.5"/>
		<ellipse id="XMLID_186_" class="st39" cx="1141.8" cy="262.3" rx="0.3" ry="0.5"/>
		<ellipse id="XMLID_185_" class="st39" cx="1140.1" cy="261.4" rx="0.3" ry="0.5"/>
		<ellipse id="XMLID_184_" class="st39" cx="1140.7" cy="259.8" rx="0.3" ry="0.5"/>
		<ellipse id="XMLID_183_" class="st39" cx="1151.6" cy="268" rx="0.3" ry="0.5"/>
		<ellipse id="XMLID_182_" class="st39" cx="1150.9" cy="269.2" rx="0.3" ry="0.5"/>
		<ellipse id="XMLID_181_" class="st39" cx="1152.4" cy="269.7" rx="0.3" ry="0.5"/>
		<ellipse id="XMLID_180_" class="st39" cx="1179.6" cy="250.1" rx="0.3" ry="0.5"/>
		<ellipse id="XMLID_179_" class="st39" cx="1181.1" cy="248.8" rx="0.3" ry="0.5"/>
		<ellipse id="XMLID_178_" class="st39" cx="1186.9" cy="251.5" rx="0.3" ry="0.5"/>
		<ellipse id="XMLID_177_" class="st39" cx="1179.6" cy="256.5" rx="0.3" ry="0.5"/>
		<ellipse id="XMLID_176_" class="st39" cx="1184.1" cy="258.4" rx="0.3" ry="0.5"/>
		<ellipse id="XMLID_175_" class="st39" cx="1188.7" cy="256.5" rx="0.3" ry="0.5"/>
		<g id="XMLID_174_">
			<text transform="matrix(-0.8469 -0.5317 0.5317 -0.8469 1194.2349 229.7457)" class="st2 st16 st37">Pear</text>
		</g>
	</g>
	<g id="XMLID_173_">
		<rect id="XMLID_49_" x="943.2" y="119.8" class="st14" width="254.4" height="41.6"/>
		<text transform="matrix(-0.9698 0 0 -1 1197.6453 151.5244)"><tspan x="0" y="0" class="st15 st16 st19">It’s easiest to graft pear onto pear, cherry onto</tspan><tspan x="0" y="14.1" class="st15 st16 st19">cherry and plum onto plum, and stone fruits</tspan><tspan x="0" y="28.1" class="st15 st16 st19">can be intermixed onto plum fairly easily.</tspan></text>
	</g>
	<line id="XMLID_172_" class="st40" x1="14.4" y1="698.9" x2="25" y2="698.9"/>
	<ellipse id="XMLID_171_" class="st40" cx="19.3" cy="94.1" rx="4.9" ry="0"/>
	<ellipse id="XMLID_170_" class="st40" cx="1201.7" cy="94.5" rx="6.7" ry="0.4"/>
	<ellipse id="XMLID_169_" class="st40" cx="1201.7" cy="698.9" rx="6.7" ry="0.8"/>
	<rect id="XMLID_16_" x="943.4" y="625.6" class="st14" width="254.1" height="54.6"/>
	<text id="XMLID_167_" transform="matrix(1 0 0 1 943.4353 635.3945)"><tspan x="0" y="0" class="st2 st16 st17">Graft in late winter to early spring while </tspan><tspan x="0" y="15.5" class="st2 st16 st17">branches are dormant, or as dormancy is </tspan><tspan x="0" y="31" class="st2 st16 st17">just breaking....</tspan></text>
	<g id="XMLID_411_">
		<text id="XMLID_166_" transform="matrix(1 0 0 1 1067.4753 598.8906)" class="st24 st9 st41">Instruction Manual</text>
		<g id="XMLID_412_">
			<g id="XMLID_424_">
				<path id="XMLID_165_" class="st1" d="M1052.3,555.3c0,0-16.4,11.2-22.2,18.1c-2,2.4-4,4.9-6.7,6.4c-2.8,1.4-6.6,1.4-8.5-1.1
					c0,0.1,0,0.2,0,0.3c0.4,2.8,0.7,5.7,1.1,8.5c0.4,2.8,0.5,5.9,1.1,8.6c2-5.9,6.3-10.2,10.8-14.3c3.4-3.2,6.7-6.3,10.1-9.5
					c2.4-2.3,5-4.6,8.1-5.6c3.2-0.9,7.2,0,8.7,3c0.8,1.6,0.7,3.5,1.2,5.3c1.2,5.1,6.1,8.3,10.6,11c2.7-5.5,5.2-12.5,1.5-17.3
					c-2.3-2.9-6.2-4-9.9-4.3c-4.6-0.4-9.3,0-13.8,1.2c2.7-2.5,4.6-4.4,7.6-6.6C1051.9,559,1052.3,555.3,1052.3,555.3z"/>
				<path id="XMLID_164_" class="st1" d="M1159.6,492.9c-1.8-0.5-3.5-1-5.3-1.5c-0.1-1.1,0.4-2.2,1.3-2.8c-0.7-0.1-1.5-0.2-2.2-0.3
					c-0.1-1-0.6-1.9-1.3-2.7c-1.2,0.8-3,0.6-4-0.5c-3.5,1.7-4.3,6.1-5.4,9.9c-1.1,3.7-4.4,7.8-8,6.5c0.1-3,2.9-5,4.6-7.5
					c3.2-4.6,2.2-11.7-2.2-15.2c-2.4,5.1-4.9,10.7-3.4,16.1c0.3,1.3,0.4,2.4,0.3,3.8c-0.1,2.2-1.3,4.1-3,5.5
					c-9.3,8-19.9,14.4-31.2,18.9c0.3-1.7,2.1-2.7,3.7-3.6c5.5-3.2,9.7-8.4,11.8-14.4c-5.3-0.6-11.9-0.6-14.4,4
					c-0.6,1.1-0.9,2.3-0.8,3.6c0.1,1.5,0.6,2.9,0.7,4.3c0.1,1.5-0.4,3.2-1.8,3.7c0.4-4.1-3.5-7.5-3.6-11.6c0-1.6,0.5-3.1,0.6-4.7
					c0.1-4-3.6-7.6-7.6-7.5c-2,0.1-4.1,1-6,0.3c-1.2-0.4-2.1-1.5-3.2-2.2c-1.1-0.7-2.7-1-3.6,0c4.1,2.5,8.5,5.5,9.3,10.1
					c-1.5-0.9-3.6-0.7-5,0.4c0.9,2.9,1.9,5.9,3.8,8.4c1.9,2.5,4.9,4.3,7.9,3.9c0.9-0.1,1.7-0.4,2.6-0.2c2,0.3,3.1,2.9,2.5,4.9
					s-2.2,3.5-3.7,4.8c-8.9,7.7-18.6,14.4-29,19.9c-1.3-1.9-0.3-4.5,1.2-6.3c1.5-1.7,3.5-3.1,4.6-5.1c1.6-2.8,1.1-6.4-0.2-9.4
					c-1.3-3-3.5-5.5-5.2-8.2c-1.5-2.4-3.9-5.4-6.5-4.2c1,1.7,2.1,3.3,3.1,5c0.7,1.1,1.4,2.3,1.6,3.6c0.4,2.5-1.2,4.9-1.6,7.4
					c-0.6,4.1,2.2,8.1,2,12.2c-0.3,5.6-2.9,8.8-7.7,11.7l-0.4,3.9c3.8-2.4,10.6-7.3,14.8-9.2c2.2-0.9,5.5-1.2,6,1.1
					c0.5,2.2-2.4,3.4-4.2,4.8c-2.1,1.7-2.9,4.6-2.5,7.2s1.8,5,3.4,7.1c5.2-5.1,7-13.4,4.5-20.2c2.9,3.3,4.5,7.9,4.2,12.3
					c-0.1,1.5-0.4,3,0.2,4.4c0.8,1.8,3.1,2.7,4.9,2c1.8-0.7,2.8-3,2-4.8c-0.7-1.8-2.6-2.7-4-4c-1.4-1.3-2.2-3.9-0.6-5
					c2.6,5.1,7.4,9.1,12.9,10.8c3.1-7.4-1.5-17-9.2-19.2c6.3-2.4,12.7,5.8,19.2,4.1c-0.5-3.8-3.9-7-7.7-7.4
					c-1.7-0.2-3.6,0.2-5.2-0.4c-1.8-0.7-3.4-2.4-5.3-2c-1.8,0.4-2.5,2.6-3.7,4.1c-2,2.6-6.3,3-8.7,0.9c0.5-1.1,1.4-1.9,2.4-2.7
					c8.2-6.7,17-12.6,26.2-17.7c4.2-2.3,8.5-4.5,13.2-5s9.9,0.8,12.9,4.5c1,1.2,1.8,2.7,3.2,3.4c1.3,0.7,3.1,0.7,3.8,1.9
					c0.5,0.9,0.2,2,0,3c-0.6,3.2,0.3,6.6,2.3,9c2-3.7,4-8.3,2-12c-0.5-1-1.4-1.9-1.7-3c-0.5-1.4-0.2-2.9-0.4-4.3
					c-0.4-3.1-3.7-5.6-6.8-5.2c-1.2,0.1-2.3,0.6-3.5,1c-3.5,1.1-7.4,0.8-10.7-0.8c5.8-4,11.5-8,17.3-12c1.9-1.3,4-2.7,6.3-2.5
					c2.1,0.2,3.8,1.6,5.7,2.5c3.8,1.7,8.5,1.2,11.7-1.4C1157.6,500.4,1157.5,496.1,1159.6,492.9z"/>
			</g>
			<text id="XMLID_163_" transform="matrix(1 2.000000e-04 -2.000000e-04 1 950.992 561.3035)" class="st42 st9 st43">Guerrilla</text>
			<text id="XMLID_162_" transform="matrix(1 3.290000e-03 -3.290000e-03 1 1110.5812 561.1409)" class="st42 st9 st44">Grafters</text>
			<path id="XMLID_161_" class="st8" d="M1045.5,554c1-5.4,8.6-5.5,7.3,1.3c1.3-6.7,8.4-4.2,7.4,1.2c-0.4,2.1-2.3,2.2-4,2.5
				c-1,0.2-1.7,0.7-2.4,1.3c-0.4,0.4-0.8,0.9-1.3,1.3c-0.1,0.1-0.4,0.1-0.5-0.1c-1-1.5-1.4-2.9-3.2-3.9
				C1047.3,556.8,1045.1,556.1,1045.5,554z"/>
		</g>
	</g>
	<g id="XMLID_159_">
		
			<rect id="XMLID_43_" x="631.1" y="119.4" transform="matrix(-1 8.748678e-11 -8.748678e-11 -1 1436.922 325.2431)" class="st14" width="174.8" height="86.4"/>
		<text transform="matrix(-0.9698 0 0 -1 805.8582 196.9653)"><tspan x="0" y="0" class="st15 st16 st19">Label the scions with the cultivar, </tspan><tspan x="0" y="14.1" class="st15 st16 st19">date, and location of the stock </tspan><tspan x="0" y="28.1" class="st15 st16 st19">plant. Store bundles in ziploc bags </tspan><tspan x="0" y="42.2" class="st15 st16 st19">with a sprinkle of water  in the </tspan><tspan x="0" y="56.3" class="st15 st16 st19">refrigerator. The scions can last </tspan><tspan x="0" y="70.3" class="st15 st16 st19">up to a month.</tspan></text>
	</g>
	<g id="XMLID_474_">
		<path id="XMLID_158_" class="st45" d="M656.2,234.2c1.2,0.2,3.6,1.3,4.5,2.1c0.9,0.8,7.1-0.8,8.9,0.1c1.9,1,6.1,1.8,8.3,1.8
			s3.9,0.8,4.9,0.1c1-0.8,19.3-2.2,21.2-0.6c1.9,1.6,3.8,5.1-0.1,5.6s-16.5,2.1-17.5,3.2s-0.5,2,3.6,1.1c4.1-0.9,17.3-1.3,19.9-1.3
			c3.7,0.1,4.4,5.7,2.3,6.6c-5.9,2.5-14.2,3.4-15.5,4s-6.7,0.8-10.3,1.6c-3.6,0.7,9.1,0.4,13.6,0.2c4.6-0.2,13.7-2.8,15.2-1.2
			c1.6,1.6,3.2,5.4-3.9,7.3c-7.1,1.9-20.6,4.7-23.9,4.4c9.7,0.2,20.7-1.6,22.9-1.6c6.6,0,7.3,3.1,5.7,5.4s-8.7,4.9-11.1,5.3
			c-2.4,0.4-5.4,1.5-6.8,1.8c-1.4,0.3-2.8,1.1-5.7,1.1s-13.8,3.1-16.1,2.8s-6.7,1-8.9-0.1c-2.2-1.2-12.7-8.6-17.4-9.5
			c-8.9-1.7-18.4-1.7-18.3-4.2c0-2.5-2.3-35.3,0.5-35.3C635.3,235.1,643.2,232,656.2,234.2z"/>
		<path id="XMLID_157_" class="st2" d="M673.2,229c2.3,1.8,5.1,11.6,6.4,13.1s3.3,3.8,3.1,5.8c-0.3,2,5.6,11.9,7.2,14.4
			s3.9,5.8,5.1,8.1s5.2,11.5,6.3,13.1c1.1,1.6,6.2,6.6,7.7,9.8c1.5,3.3,3.6,6.1,4.6,6.4c1,0.3,0.6,3.6-0.1,4.7
			c-0.6,1.1-2.8-1.5-4.2-3.1c-1.4-1.6-5.4-1.6-5.4-2.3c0-0.6-0.8-1.8-1.8-2.5c-1-0.7-5.9-6.8-6.7-7.2c-0.8-0.4-2.2-1.4-1.9-2.6
			c0.2-1.3-9-17.1-10.6-20c-1.6-2.9-9.3-16.9-9.9-18.9s-4-7.7-5-9.5s-7.9-9.8-7.9-11.4c0-1.6,1.2-3.1,1.2-3.1s5.6,8.9,6.5,9.5
			s1.2,2.6,2.2,4.1s6.5,10.4,7.5,12.9c1,2.6,4.2,10.9,5.2,12.6c1,1.7,3.9,7.3,5.2,7.2s2.6,2.3,3.2,4.2c0.6,1.9,1.8,1.7,2.2,3.1
			s2.7,8.7,4.2,10.5c1.5,1.8,5.3,5.2,6.7,6.1c-0.4-2-5-9.4-5.8-10s-0.1-1.9-1-3.2c-0.9-1.2-3.1-4.5-4.1-6.3c-1-1.8-6.4-8.3-6.9-10.2
			c-0.5-1.9-6.1-16-6.9-16.6s-5.3-10.4-6.3-12c-1-1.6-5.5-7.8-5.7-9.1c-0.2-1.3,0.8-2.6,1.4-2.7C669.3,223.8,671.7,227.8,673.2,229z
			"/>
		<path id="XMLID_156_" class="st2" d="M660.4,221.7c1.2,1.3,13.3,13.9,14.1,15.4c0.8,1.5,10.1,9.7,11.3,11.9
			c1.2,2.3,5.7,7.7,6.7,9.6c1,1.9,6.7,8.1,7.4,9.5c0.6,1.4,1.9,2.2,2.9,2.9c1,0.7,6.8,3.2,7.2,3.2c0.3,0,0.6,1.6-1.6,2
			c-0.5,1.9,0.7,4.5,1.7,5.1c1,0.6,12.4,13.9,12.9,15.4c0.5,1.5,3.8,2.8,2.8,3.1c-1,0.3-3.1,0.5-3.3,0c-0.1-0.5-1.5-1.9-2.5-2.4
			c1,2.3,3.1,6.6,3.9,7.5c0.8,0.9,1.8,2.2,2.2,3.6c0.4,1.4,3.7,4.1,1.6,4.4s-3.5-0.1-3.7-0.8c-0.2-0.7-6-13-7.4-14.6
			c-1.5-1.6-2.1-2.2-2.2-2.8s-17.8-25.7-17.9-26.8c-0.1-1.1-2.1-4.4-3.6-4.7c-1.5-0.3-3.6-2.1-3-2.7c0.6-0.6-2-6.2-2.9-7
			c-0.9-0.8-8.3-8.4-9-8.1c-0.7,0.2-3.4-1.8-3.8-2.9c-0.4-1.1-14.3-19.4-14.8-19.5S660.4,221.7,660.4,221.7z"/>
		<path id="XMLID_155_" class="st2" d="M714.5,316.4c0.4-1.2-2.7-7.9-2.7-8.8c0-0.9-1.3-2.1-1.7-2.2s-1.8-1.8-1.7-2.5
			c0-0.7-4.3-6.5-6.1-8.6c-1.8-2-6-5.6-6.6-7.2c-0.6-1.6-7.2-13-8-14.5c-0.7-1.6-1.6-6.3-2.1-6.4s-2.2-0.1-3.2-0.8
			c-1.1-0.7-13-18.1-13.7-19.8c-0.7-1.7-1.5,1.5-0.9,2.5s13.6,19.8,14.8,21.3c1.1,1.6,4.8,6.1,4.8,7s0.1,3.5,1.2,3.5s2.5,4,2.5,4
			s-0.8-0.4-0.8-0.1c0,0.3,1.4,3.5,2.1,3.7c0.7,0.2,8.3,8.8,8.3,9.2c0,0.4-1.5,0.4-2,0.4c0.2,1.4,1.8,2.9,2.7,3.1s1.9,1.8,1.9,1.8
			s0.2,0.1,2.1,2.4c1.8,2.3,5.2,8.5,5.2,9.9C710.4,315.6,713.3,320.3,714.5,316.4z"/>
		<path id="XMLID_154_" class="st2" d="M689.3,282.4c0.2,1.2,4.2,17.8,4.2,18.2c0,0-1.8-1-1.8-0.5c0,0.4,2.7,7.6,3,8.2
			c0.3,0.6,1.5,3.4,1.1,4s-1.1,1.2-2.5,0.7c-1.5-0.5-1.4-2.9-1.4-3.9c0-0.9-0.5-4.1-0.5-4.6s-2.4-11-3.1-12.8
			c-0.7-1.8-1.5-7.7-2.1-8.4s-3.1-5.5-3.5-6.5c-0.4-1.1-3.7-7.3-3.8-9c-0.2-1.7-5.8-8.3-5.8-8.8s5.8,4.2,6.4,5.2
			c0.6,1,3.1,5.7,3.1,6.9c0.1,1.3,3.4,6.3,3.6,6.7C686.6,278.2,689.1,280.8,689.3,282.4z"/>
		<path id="XMLID_153_" class="st2" d="M690.1,303.1c-0.4,0.8-2.4,2.7-3,2.1c-0.5-0.6-2.6-4.3-2.7-5c-0.1-0.6-0.5-8.1-0.9-9.3
			c-0.4-1.3,0-4.9-0.6-6.8c-0.6-1.9-0.3-2.5,0.1-4.5c0.4-1.9-0.5-14-0.2-14.7c0.4-0.7-0.4-5.9,0-5.9c0.5,0,2.5,0.3,2.2,1.3
			s0.1,5.1-0.1,5.7s0.5,3.1,0.7,3.7c0.2,0.6,0.3,1.1,0.3,2c0,0.9-0.5,5.1-0.5,6.4c0,1.3-0.5,7.4-0.2,7.9c0.3,0.6,1.5,1.9,1.1,2.7
			c-0.4,0.7-0.3,2.3-0.1,4.4s1,7,1.6,7.7C688.4,301.4,690.1,303.1,690.1,303.1z"/>
		<path id="XMLID_152_" class="st2" d="M684.3,305.9c0.7,2.1,2.5,6.4,2,7.8c-0.4,1.4-0.7,4.1,0,4.4c0.7,0.3,1.1,1.5,1.1,2
			c0,0.5,0.1,0.6,0.6,1c0.5,0.4,0.6,0.9,0.5,1.6s-0.5,2.3,0.7,3c1.1,0.7-3.5,6-3.6,5.5s-1.5-2.5-1.6-4.7c-1.4,1.3-2.7,4.4-2.9,5.2
			c-0.2,0.8-3.9,2-3.3-1.4c0.6-3.4,0-4.5,0.6-4.8s1.1-4.5,0.7-5.7c-0.4-1.3-0.1-1.7,0.4-1.7s0.4-0.7,0.2-1.8c-0.2-1-0.6-4.9-0.7-7.7
			s-0.7-11.2-0.8-12.6c-0.1-1.4,1.1-3.2,0.6-4.6s-3.2-9.6-3.7-13c-0.5-3.5-5.5-13.5-5-14.3s3.2-1,3.8,1.9c0.6,3,2.7,5.5,2.8,7.3
			c0.1,1.8,1,3.7,1.3,5.6c0.3,1.9,2.3,10.5,3,11.4c0.8,1,1.9,6.4,2,7.9c0.2,1.5,1.3,4.3,1.2,5C684.3,303.7,684.2,305.3,684.3,305.9z
			"/>
		<path id="XMLID_151_" class="st46" d="M653.5,245.3c2.5,0,17.5,1.8,18.6,3.7s2.5,1.8,2.3,2.7s1.4,1,1.4,1s1.6-0.3,3.2-1.2
			c1.6-0.9,10.6-3.3,12.1-2.7c1.6,0.6,6.9,2.7,5.4,7.4c-0.7,2-1.6,1.7-3.2,2.2s-4.7,1.3-5.2,2.1c-0.5,0.8-2.7,1.8-4,2.1
			s-1.9,1.7-3.5,2.5c-1.6,0.8-6.5,4.5-7,4.4c-0.5,0-9.3,1.2-10.5,2.7"/>
	</g>
	<g id="XMLID_150_">
		<rect id="XMLID_47_" x="735.5" y="223.8" class="st14" width="157.2" height="90.2"/>
		<text transform="matrix(-0.9698 0 0 -1 892.6922 305.166)"><tspan x="0" y="0" class="st15 st16 st19">Collect budding fruit tree </tspan><tspan x="0" y="14.1" class="st15 st16 st19">cuttings (</tspan><tspan x="49.6" y="14.1" class="st15 st18 st19">“scions”</tspan><tspan x="100" y="14.1" class="st15 st16 st19">) from local </tspan><tspan x="0" y="28.1" class="st15 st16 st19">fruit growers’ exchanges, or </tspan><tspan x="0" y="42.2" class="st15 st16 st19">from a friend’s fruiting tree in </tspan><tspan x="0" y="56.3" class="st15 st16 st19">your bioregion....</tspan></text>
	</g>
	<g id="XMLID_427_">
		<path id="XMLID_149_" class="st2" d="M881.2,127.7c-1.1,1.1-11.6,12-12.2,13.4s-8.8,8.4-9.9,10.4s-5,6.7-5.8,8.3s-5.8,7-6.4,8.3
			s-1.7,1.9-2.5,2.5c-0.8,0.6-5.9,2.8-6.2,2.8c-0.3,0-0.5,1.4,1.4,1.7c0.5,1.7-0.6,3.9-1.5,4.5c-0.8,0.5-10.8,12.1-11.2,13.4
			c-0.5,1.3-3.3,2.4-2.4,2.7c0.9,0.3,2.7,0.4,2.9,0s1.3-1.7,2.1-2.1c-0.9,2-2.7,5.7-3.4,6.5c-0.7,0.7-1.6,1.9-2,3.1
			s-3.2,3.6-1.4,3.8s3-0.1,3.2-0.7c0.2-0.6,5.2-11.3,6.5-12.7c1.3-1.4,1.8-1.9,1.9-2.4s15.5-22.4,15.5-23.3s1.8-3.8,3.1-4.1
			c1.3-0.3,3.1-1.8,2.6-2.4c-0.5-0.5,1.8-5.4,2.5-6.1c0.8-0.7,7.2-7.3,7.8-7.1c0.6,0.2,3-1.5,3.3-2.5s12.4-16.8,12.8-17
			C882.3,128.5,881.2,127.7,881.2,127.7z"/>
		<path id="XMLID_148_" class="st47" d="M837.7,185.8c-1.2-1.3-3.1-2.7-3.6-2.1s-2.2,0.6-1.2,1.4c1,0.8,3.6,2.5,3.8,2.2
			s1.5,0.6,2,0.6s0.4,1.8,0.9,2.2s1.7,0,1.7,0s3.6,6.3,3.3,8.7s0.4,4.6,0.8,5.7c0.4,1.2,1,2.6,1.6,3.5l6.9-1.1c0,0-1.6-4.8-1.8-6.8
			s-0.5-2.3-1.7-4.4s-6.2-5.4-7.1-5.9c5-0.8,14.9,3.5,17.7,2.9c2.9-0.7,10-0.1,12.9,0.9l-1.3-10.1c0,0-12.6,0.9-14.1,1.7
			c-1.4,0.8-14.6,2-15.2,2.5c-0.7-2.1-1.6-2.2-2.7-2.1S838.3,186.4,837.7,185.8z"/>
		<path id="XMLID_461_" class="st24" d="M870.7,187.3c0.3,0,0.5,0.1,0.6,0.3c0.1-0.1,0.1-0.2,0.2-0.3c0,0,0.1,0,0.1,0
			c0.1,0.1,0.1,0.2,0,0.5c-0.2,0.4-1.2,2-1.6,2.4c-0.1,0.1-0.1,0.1-0.1,0c-0.1-0.1-0.1-0.3,0.1-0.6c0.1-0.1,0.3-0.4,0.5-0.7
			c-0.2,0.1-0.3,0.2-0.5,0.2c-0.5,0-0.5-0.5-0.2-1.1C870,187.5,870.3,187.3,870.7,187.3z M870.4,188.7c0.3-0.2,0.5-0.6,0.7-0.9
			c0-0.1-0.1-0.3-0.2-0.3c-0.2,0-0.5,0.1-0.8,0.6c-0.3,0.5-0.3,0.8-0.1,0.8C870.1,188.8,870.2,188.8,870.4,188.7z"/>
		<path id="XMLID_456_" class="st24" d="M869.5,188.3c-0.1,0.3-0.5,0.8-0.7,1.1c-0.1,0.1-0.1,0.1-0.1,0c-0.1-0.1-0.1-0.3,0-0.5
			c0.1-0.2,0.4-0.5,0.5-0.7c0.1-0.3,0.1-0.4-0.1-0.4c-0.3,0-0.6,0.3-0.7,0.6c0,0-0.1,0-0.1,0c0-0.1,0-0.2,0-0.3
			c0.2-0.3,0.5-0.5,0.8-0.5C869.5,187.6,869.6,187.9,869.5,188.3z M868.2,189.4c0.1-0.1,0.2,0,0.3,0.1c0.1,0.1,0.1,0.3,0,0.3
			c-0.1,0.1-0.3,0-0.3-0.1C868.1,189.6,868.2,189.5,868.2,189.4z"/>
		<path id="XMLID_453_" class="st24" d="M866.7,189.1c-0.2,0-0.4-0.2-0.2-0.5c0.1-0.2,0.4-0.5,0.5-0.7c0.1-0.3,0.1-0.5-0.1-0.5
			c-0.2,0-0.5,0.3-0.7,0.6c0,0-0.1,0-0.1,0c0,0,0-0.2,0.1-0.3c0.2-0.2,0.5-0.5,0.8-0.5c0.5,0,0.6,0.3,0.4,0.7
			c-0.2,0.4-0.7,0.9-0.6,0.9c0.1,0,0.4-0.1,0.7-0.4c0.3-0.3,0.6-0.7,0.8-1.1c0,0,0.1-0.1,0.1,0c0.1,0.1,0.1,0.2,0.1,0.5
			c-0.1,0.3-0.5,0.9-0.9,1.3c0,0-0.1,0-0.1,0c-0.1-0.1-0.1-0.3,0-0.4C867.2,188.9,866.9,189.1,866.7,189.1z"/>
		<path id="XMLID_447_" class="st24" d="M864.7,187c0.2-0.6,0.5-1.3,1-1.5c0.1,0,0.2,0,0.3,0.1c0.1,0.1,0.3,0.3,0.2,0.5
			c-0.1,0.4-0.6,0.7-1.1,0.9c0,0.1-0.1,0.2-0.1,0.3c0.1-0.1,0.3-0.2,0.5-0.3c0.5,0,0.7,0.5,0.3,1.1c-0.4,0.5-0.8,0.8-1.1,0.8
			c-0.2,0-0.4-0.1-0.4-0.3c-0.1,0.1-0.1,0.2-0.2,0.3c0,0.1-0.1,0.1-0.1,0c-0.1-0.1-0.2-0.3-0.1-0.5c0.1-0.3,0.4-0.8,0.6-1.3
			c-0.4,0.2-0.7,0.5-0.9,0.7c0,0-0.1,0-0.1,0c0,0,0-0.1,0.1-0.3C863.9,187.4,864.3,187.2,864.7,187z M865.9,185.7
			c-0.1-0.1-0.5,0.4-0.7,1.1C865.9,186.4,866,185.8,865.9,185.7z M864.7,188.7c0.2,0,0.5-0.3,0.8-0.7c0.3-0.4,0.3-0.8,0-0.8
			c-0.2,0-0.5,0.3-0.7,0.7C864.5,188.4,864.5,188.7,864.7,188.7z"/>
		<path id="XMLID_445_" class="st24" d="M860.5,189c-0.1-0.3,0.1-0.6,0.2-1c0-0.1,0-0.1,0.1-0.1c0.1,0.1,0.2,0.3,0.1,0.6
			c-0.1,0.2-0.2,0.5-0.2,0.6c0.1,0.1,0.5-0.3,0.8-0.9c0.3-0.8,0.2-1.3-0.1-1.3c-0.5,0-0.9,0.5-1.1,0.9c0,0.1-0.1,0.1-0.1,0
			c0-0.1,0-0.2,0.1-0.4c0.2-0.4,0.7-0.7,1.1-0.7c0.7,0,0.9,0.8,0.6,1.7c-0.4,0.8-0.9,1.2-1.2,1C860.6,189.2,860.5,189.1,860.5,189z"
			/>
		<path id="XMLID_441_" class="st24" d="M858.5,187.8c0.4,0,0.5,0.3,0.3,0.8c-0.1,0.5-0.5,1.1-0.5,1.1c0.1,0,0.7-0.3,1-0.8
			c0.5-0.6,0.9-1.2,1-1.5c0,0-0.1,0.4-0.1,0.4c0.2-0.3,0,0.2-0.5,0.9c-0.4,0.7-1.1,2.1-1.5,2.6c0,0.1-0.1,0.1-0.1,0
			c-0.1-0.2,0-0.4,0.1-0.8c0.1-0.2,0.3-0.6,0.5-1c-0.2,0.2-0.4,0.4-0.5,0.4c-0.2,0-0.3-0.3-0.2-0.6c0.1-0.2,0.3-0.6,0.4-0.9
			c0.1-0.3,0.1-0.6-0.1-0.5c-0.2,0-0.4,0.4-0.6,0.7c0,0-0.1,0-0.1,0c0-0.1,0-0.2,0-0.3C857.9,188.1,858.2,187.8,858.5,187.8z"/>
		<path id="XMLID_438_" class="st24" d="M854.7,187.8c-0.4-0.1-0.7,0.5-0.9,1c0.5,0.2,0.1,0.7-0.2,0.7c-0.2,0-0.2-0.3-0.1-0.5
			c-0.2,0-0.4,0-0.6,0.1c-0.1,0-0.1,0-0.2,0c-0.1-0.1-0.3-0.3-0.2-0.5c0.2-0.2,0.5-0.4,0.5-0.6c0-0.2-0.1-0.4-0.2-0.4
			c-0.2,0-0.5,0.2-0.6,0.5c0,0-0.1,0-0.1,0c0-0.1-0.1-0.2,0-0.3c0.1-0.2,0.4-0.4,0.7-0.3c0.4,0.1,0.7,0.4,0.6,0.7
			c-0.1,0.3-0.4,0.5-0.6,0.7c0.2-0.1,0.5-0.1,0.7-0.1c0.2-0.5,0.5-1.2,1.2-1.1c0.4,0.1,0.7,0.4,0.6,0.7c-0.1,0.3-0.3,0.5-0.6,0.7
			c0.2-0.1,0.5-0.1,0.7-0.1c0.3-0.7,0.8-1.1,1.5-1c0.7,0.1,1.1,0.7,0.8,1.2c-0.3,0.5-0.8,0.6-1.1,0.5c-0.2-0.1-0.3-0.2-0.4-0.3
			c-0.1-0.1-0.1-0.4,0.1-0.5c0.2-0.2,0.6-0.3,1.1,0c0.1-0.4-0.1-0.7-0.4-0.7c-0.7-0.1-1.1,0.5-1.4,1c0.5,0.2,0,0.7-0.2,0.7
			c-0.2,0-0.2-0.3-0.1-0.5c-0.2,0-0.4,0-0.6,0.1c-0.1,0-0.1,0-0.2,0c-0.1-0.1-0.3-0.3-0.2-0.5c0.2-0.2,0.5-0.4,0.5-0.7
			C855,188,854.9,187.8,854.7,187.8z M856.6,189.5c0.1,0.1,0.6-0.1,0.8-0.5c0,0,0,0,0-0.1c-0.3-0.2-0.5,0-0.6,0.1
			C856.6,189.2,856.5,189.4,856.6,189.5z"/>
		<path id="XMLID_434_" class="st24" d="M850.9,188.4c0.2-0.4,0.6-0.9,0.9-1c0.1,0,0.2,0,0.3,0.1c0.1,0.1,0.2,0.2,0.1,0.4
			c-0.1,0.3-0.5,0.5-0.9,0.6c0,0.1-0.1,0.2-0.1,0.2c0.1-0.1,0.3-0.2,0.5-0.2c0.3,0,0.3,0.3,0.2,0.5c-0.1,0.2-0.3,0.5-0.6,0.8
			c0,0-0.1,0-0.1,0c-0.1-0.1-0.1-0.2,0.1-0.4c0.2-0.2,0.3-0.3,0.3-0.5c0.1-0.2,0.1-0.3,0-0.3c-0.2,0-0.4,0.2-0.6,0.5
			c-0.2,0.2-0.4,0.5-0.5,0.7c0,0-0.1,0-0.1,0c-0.1-0.1-0.1-0.2,0-0.4c0.1-0.2,0.4-0.6,0.6-0.9c-0.3,0.1-0.6,0.3-0.8,0.5
			c0,0-0.1,0-0.1,0c0,0,0-0.1,0.1-0.2C850.2,188.7,850.6,188.5,850.9,188.4z M852,187.6c-0.1-0.1-0.4,0.3-0.7,0.8
			C851.9,188.1,852.1,187.6,852,187.6z"/>
		<path id="XMLID_133_" class="st47" d="M843.3,187.7c0,0,1.2,2.5-2,2.5"/>
		<path id="XMLID_132_" class="st47" d="M838.7,188c0,0-1.8-1.5,0-1.9"/>
	</g>
	<rect id="XMLID_131_" x="917.1" y="408.1" class="st6" width="305.6" height="46.3"/>
	<rect id="XMLID_13_" x="938.8" y="416.1" class="st14" width="275.1" height="36.5"/>
	<text id="XMLID_130_" transform="matrix(0.9 0 0 1 938.8328 427.3584)"><tspan x="0" y="0" class="st25 st48 st49">lots of different connections are</tspan><tspan x="0" y="16.4" class="st25 st48 st49">needed to foster an urban commons</tspan></text>
	<rect id="XMLID_12_" x="25" y="643" class="st14" width="583.7" height="38.1"/>
	<text id="XMLID_128_" transform="matrix(0.9 0 0 1 24.9793 654.3145)"><tspan x="0" y="0" class="st25 st48 st49">consider</tspan><tspan x="75" y="0" class="st25 st48 st49"> </tspan><tspan x="84.5" y="0" class="st25 st48 st49">RFID,</tspan><tspan x="131.4" y="0" class="st25 st48 st49"> </tspan><tspan x="140.9" y="0" class="st25 st48 st49">encryption,</tspan><tspan x="244" y="0" class="st25 st48 st49"> </tspan><tspan x="253.5" y="0" class="st25 st48 st49">p2p,</tspan><tspan x="291" y="0" class="st25 st48 st49">   </tspan><tspan x="319.5" y="0" class="st25 st48 st49">trust</tspan><tspan x="366.3" y="0" class="st25 st48 st49"> </tspan><tspan x="375.8" y="0" class="st25 st48 st49">networks,</tspan><tspan x="460.2" y="0" class="st25 st48 st49"> </tspan><tspan x="469.7" y="0" class="st25 st48 st49">graffiti,</tspan><tspan x="554.1" y="0" class="st25 st48 st49"> </tspan><tspan x="563.6" y="0" class="st25 st48 st49">and</tspan><tspan x="591.7" y="0" class="st25 st48 st49"> </tspan><tspan x="601.2" y="0" class="st25 st48 st49">local </tspan><tspan x="0" y="16.4" class="st25 st48 st49">area networks to protect data      while the urban commons grows.... </tspan></text>
	<rect id="XMLID_11_" x="613.2" y="643" class="st14" width="304.7" height="46.3"/>
	<text id="XMLID_127_" transform="matrix(0.9 0 0 1 613.1907 654.3145)"><tspan x="0" y="0" class="st25 st48 st49">and</tspan><tspan x="26.4" y="0" class="st25 st48 st49 st50"> </tspan><tspan x="41" y="0" class="st25 st48 st49">find</tspan><tspan x="76.3" y="0" class="st25 st48 st49 st50"> </tspan><tspan x="90.9" y="0" class="st25 st48 st49">out</tspan><tspan x="117.4" y="0" class="st25 st48 st49 st50"> </tspan><tspan x="132" y="0" class="st25 st48 st49">about</tspan><tspan x="176" y="0" class="st25 st48 st49 st50"> </tspan><tspan x="190.6" y="0" class="st25 st48 st49">hackerspaces</tspan><tspan x="296.4" y="0" class="st25 st48 st49 st50"> </tspan><tspan x="311" y="0" class="st25 st48 st49">and </tspan><tspan x="0" y="16.4" class="st25 st48 st49">join guerrilla grafters in your area.</tspan></text>
	<rect id="XMLID_125_" x="610.4" y="338.9" class="st51" width="606.1" height="46.3"/>
	<rect id="XMLID_124_" x="310.7" y="338.9" class="st6" width="299.1" height="46.3"/>
	
		<rect id="XMLID_10_" x="310.7" y="329.7" transform="matrix(-1 -9.271929e-11 9.271929e-11 -1 911.7781 705.6823)" class="st14" width="290.3" height="46.3"/>
	<text id="XMLID_123_" transform="matrix(-1 0 0 -1 601.0447 364.6963)"><tspan x="0" y="0" class="st25 st48 st49 st52">make an account, and then email us:</tspan><tspan x="0" y="16.4" class="st25 st48 st49 st53">info@guerrillagrafters.org</tspan></text>
	
		<rect id="XMLID_1_" x="615.3" y="329.7" transform="matrix(-1 -9.089852e-11 9.089852e-11 -1 1820.802 705.6823)" class="st14" width="590.3" height="46.3"/>
	<text transform="matrix(-0.9 0 0 -1 1205.5417 364.6963)" class="st25 st48 st49">data</text>
	<text transform="matrix(-0.9 0 0 -1 1173.0388 364.6963)" class="st25 st48 st49 st54"> </text>
	<text transform="matrix(-0.9 0 0 -1 1161.0134 364.6963)" class="st25 st48 st49">about</text>
	<text transform="matrix(-0.9 0 0 -1 1120.3855 364.6963)" class="st25 st48 st49 st54"> </text>
	<text transform="matrix(-0.9 0 0 -1 1108.3601 364.6963)" class="st25 st48 st49">grafts</text>
	<text transform="matrix(-0.9 0 0 -1 1059.6062 364.6963)" class="st25 st48 st49 st54"> </text>
	<text transform="matrix(-0.9 0 0 -1 1047.5808 364.6963)" class="st25 st48 st49">is</text>
	<text transform="matrix(-0.9 0 0 -1 1031.3298 364.6963)" class="st25 st48 st49 st54"> </text>
	<text transform="matrix(-0.9 0 0 -1 1019.3045 364.6963)" class="st25 st48 st49">complicated;</text>
	<text transform="matrix(-0.9 0 0 -1 921.7967 364.6963)" class="st25 st48 st49 st54">  </text>
	<text transform="matrix(-0.9 0 0 -1 897.7459 364.6963)" class="st25 st48 st49">commons</text>
	<text transform="matrix(-0.9 0 0 -1 840.866 364.6963)" class="st25 st48 st49 st54"> </text>
	<text transform="matrix(-0.9 0 0 -1 828.8406 364.6963)" class="st25 st48 st49">aren’t</text>
	<text transform="matrix(-0.9 0 0 -1 780.0867 364.6963)" class="st25 st48 st49 st54"> </text>
	<text transform="matrix(-0.9 0 0 -1 768.0613 364.6963)" class="st25 st48 st49">always</text>
	<text transform="matrix(-0.9 0 0 -1 719.3074 364.6963)" class="st25 st48 st49 st54"> </text>
	<text transform="matrix(-0.9 0 0 -1 707.282 364.6963)" class="st25 st48 st49">legal....</text>
	<text transform="matrix(-1 0 0 -1 634.1512 364.6963)" class="st25 st48 st49">we </text>
	<text transform="matrix(-1 0 0 -1 1205.5417 348.2832)" class="st25 st48 st49">share data about graftable trees at *</text>
	<text transform="matrix(-1 0 0 -1 871.4705 348.2832)" class="st25 st48 st49">fallingfruit.org/grafter*</text>
	<text id="XMLID_121_" transform="matrix(1 0 0 1 453.0027 547.1963)" class="st6 st48 st55">grafting... please wait</text>
	<line id="XMLID_37_" class="st14" x1="932.8" y1="-7789.5" x2="932.8" y2="8593.5"/>
	<line id="XMLID_39_" class="st14" x1="625.7" y1="-7789.5" x2="625.7" y2="8593.5"/>
	<line id="XMLID_40_" class="st14" x1="596.3" y1="-7789.5" x2="596.3" y2="8593.5"/>
	<line id="XMLID_65_" class="st14" x1="291" y1="-7789.5" x2="291" y2="8593.5"/>
	<line class="st56" x1="22" y1="396" x2="1212.6" y2="396"/>
</g>
</svg>
